<svg xmlns="http://www.w3.org/2000/svg" xmlns:xlink="http://www.w3.org/1999/xlink"><defs><symbol viewBox="0 0 24 24" id="add-circle"><path d="M0 0h24v24H0z" fill="none" /><path d="M12 2C6.48 2 2 6.48 2 12s4.48 10 10 10 10-4.48 10-10S17.52 2 12 2zm5 11h-4v4h-2v-4H7v-2h4V7h2v4h4v2z" /></symbol><symbol viewBox="0 0 24 24" id="add-circle-outline"><path d="M6.328 17.672c1.594 1.562 3.484 2.344 5.672 2.344 2.188 0 4.063-.782 5.625-2.344 1.594-1.594 2.39-3.485 2.39-5.672 0-2.188-.796-4.063-2.39-5.625-1.563-1.594-3.438-2.39-5.625-2.39-2.188 0-4.078.796-5.672 2.39C4.766 7.938 3.984 9.813 3.984 12c0 2.188.782 4.078 2.344 5.672zM4.922 4.969C6.89 3 9.25 2.016 12 2.016s5.094.984 7.031 2.953C21 6.906 21.984 9.25 21.984 12s-.984 5.11-2.953 7.078c-1.937 1.938-4.281 2.906-7.031 2.906s-5.11-.968-7.078-2.906C2.984 17.11 2.016 14.75 2.016 12s.968-5.094 2.906-7.031zm8.062 2.015v4.032h4.032v1.968h-4.032v4.032h-1.968v-4.032H6.984v-1.968h4.032V6.984h1.968z" /></symbol><symbol viewBox="0 0 24 24" id="alignment-center"><path d="M3 3h18v2.02H3V3zm3.98 3.98h10.04V9H6.98V6.98zm-3.98 6v-1.96h18v1.96H3zM3 21v-2.02h18V21H3zm3.98-6h10.04v2.02H6.98V15z" /></symbol><symbol viewBox="0 0 24 24" id="alignment-left"><path d="M3 3h18v2.02H3V3zm0 18v-2.02h18V21H3zm0-8.02v-1.96h18v1.96H3zm12-6V9H3V6.98h12zM15 15v2.02H3V15h12z" /></symbol><symbol viewBox="0 0 24 24" id="apps"><path d="M15.977 20v-4.023H20V20h-4.023zm0-5.988V9.988H20v4.024h-4.023zM9.988 8.023V4h4.024v4.023H9.988zM15.977 4H20v4.023h-4.023V4zM9.988 14.012V9.988h4.024v4.024H9.988zm-5.988 0V9.988h4.023v4.024H4zM4 20v-4.023h4.023V20H4zm5.988 0v-4.023h4.024V20H9.988zM4 8.023V4h4.023v4.023H4z" /></symbol><symbol viewBox="0 0 24 24" id="arrow-back"><path d="M0 0h24v24H0z" fill="none" /><path d="M20 11H7.83l5.59-5.59L12 4l-8 8 8 8 1.41-1.41L7.83 13H20v-2z" /></symbol><symbol viewBox="0 0 24 24" id="arrow-down"><path d="M20.016 12L12 20.016 3.984 12l1.454-1.406 5.578 5.578V3.984h1.968v12.188l5.625-5.578L20.016 12z" /></symbol><symbol viewBox="0 0 24 24" id="arrow-up"><path d="M3.984 12L12 3.984 20.016 12l-1.453 1.406-5.579-5.578v12.188h-1.968V7.828L5.39 13.406 3.984 12z" /></symbol><symbol viewBox="0 0 24 24" id="art-track"><path d="M10.5 15l-2.25-3-1.734 2.25-1.266-1.5L3.516 15H10.5zM12 9v6c0 .531-.203 1-.61 1.406-.406.407-.874.61-1.406.61h-6c-.53 0-1-.203-1.406-.61A2.011 2.011 0 012.016 15V9c0-.531.187-1 .562-1.406.406-.407.875-.61 1.406-.61h6c.532 0 1 .204 1.407.61C11.797 8 12 8.469 12 9zm2.016 8.016V15h7.968v2.016h-7.968zm7.968-10.032V9h-7.968V6.984h7.968zm0 6h-7.968v-1.968h7.968v1.968z" /></symbol><symbol viewBox="0 0 24 24" id="assignment"><path d="M0 0h24v24H0z" fill="none" /><path d="M19 3h-4.18C14.4 1.84 13.3 1 12 1c-1.3 0-2.4.84-2.82 2H5c-1.1 0-2 .9-2 2v14c0 1.1.9 2 2 2h14c1.1 0 2-.9 2-2V5c0-1.1-.9-2-2-2zm-7 0c.55 0 1 .45 1 1s-.45 1-1 1-1-.45-1-1 .45-1 1-1zm2 14H7v-2h7v2zm3-4H7v-2h10v2zm0-4H7V7h10v2z" /></symbol><symbol viewBox="0 0 24 24" id="bold"><path d="M13.5 15.516c.438 0 .797-.141 1.078-.422.281-.313.422-.672.422-1.078 0-.407-.14-.75-.422-1.032a1.386 1.386 0 00-1.078-.468H9.984v3H13.5zm-3.516-9v3h3c.407 0 .75-.141 1.032-.422.312-.313.468-.672.468-1.078 0-.407-.156-.75-.468-1.032a1.335 1.335 0 00-1.032-.468h-3zm5.625 4.265c1.438.656 2.157 1.797 2.157 3.422 0 1.063-.36 1.969-1.078 2.719C16 17.64 15.124 18 14.063 18H6.984V3.984h6.282c1.125 0 2.062.391 2.812 1.172.781.782 1.172 1.735 1.172 2.86 0 1.125-.547 2.046-1.64 2.765z" /></symbol><symbol viewBox="0 0 24 24" id="burger"><path d="M3 6h18v2.02H3V6zm0 6.98v-1.96h18v1.96H3zM3 18v-2.02h18V18H3z" /></symbol><symbol viewBox="0 0 24 24" id="cached"><path d="M19 8l-4 4h3c0 3.31-2.69 6-6 6-1.01 0-1.97-.25-2.8-.7l-1.46 1.46C8.97 19.54 10.43 20 12 20c4.42 0 8-3.58 8-8h3l-4-4zM6 12c0-3.31 2.69-6 6-6 1.01 0 1.97.25 2.8.7l1.46-1.46C15.03 4.46 13.57 4 12 4c-4.42 0-8 3.58-8 8H1l4 4 4-4H6z" /><path d="M0 0h24v24H0z" fill="none" /></symbol><symbol viewBox="0 0 32 32" id="check"><path fill-rule="evenodd" d="M2 17c3.026 3.409 7.5 9.504 10 14 6.084-10.987 12.327-19.9 19-27.5L29 1c-5.405 5.604-12.413 14.786-17 22.5-2.435-3.218-4.888-5.846-7.5-9L2 17z" clip-rule="evenodd" /></symbol><symbol viewBox="0 0 512 512" id="check-circle"><path d="M504 256c0 137-111 248-248 248s-248-111-248-248 111-248 248-248 248 111 248 248zM227.3 387.3l184-184c6.2-6.2 6.2-16.4 0-22.6l-22.6-22.6c-6.2-6.2-16.4-6.2-22.6 0l-150.1 150.1-70.1-70.1c-6.2-6.2-16.4-6.2-22.6 0l-22.6 22.6c-6.2 6.2-6.2 16.4 0 22.6l104 104c6.2 6.2 16.4 6.2 22.6 0z" /></symbol><symbol viewBox="0 0 24 24" id="check-circle-outline"><path d="M16.59 7.58L10 14.17l-3.59-3.58L5 12l5 5 8-8-1.41-1.42zM12 2C6.48 2 2 6.48 2 12s4.48 10 10 10 10-4.48 10-10S17.52 2 12 2zm0 18c-4.42 0-8-3.58-8-8s3.58-8 8-8 8 3.58 8 8-3.58 8-8 8z" /></symbol><symbol viewBox="0 0 320 512" id="chevron"><path d="M285.5 273l-194.3 194.3c-9.4 9.4-24.6 9.4-33.9 0l-22.7-22.7c-9.4-9.4-9.4-24.5 0-33.9l154-154.7-154-154.7c-9.3-9.4-9.3-24.5 0-33.9l22.7-22.7c9.4-9.4 24.6-9.4 33.9 0l194.3 194.3c9.4 9.4 9.4 24.6 0 33.9z" /></symbol><symbol viewBox="0 0 24 24" id="close"><path d="M18.984 6.422L13.406 12l5.578 5.578-1.406 1.406L12 13.406l-5.578 5.578-1.406-1.406L10.594 12 5.016 6.422l1.406-1.406L12 10.594l5.578-5.578 1.406 1.406z" /></symbol><symbol viewBox="0 0 24 24" id="collage"><path d="M12.98 5.02c.29 0 .52.09.7.28.23.18.34.42.34.7v12c0 .28-.11.52-.33.7a.95.95 0 01-.7.28h-3A.95.95 0 019 18V6a.95.95 0 01.98-.98h3zm7.04 0A.95.95 0 0121 6v12a.95.95 0 01-.98.98h-3c-.29 0-.54-.09-.75-.28a.95.95 0 01-.29-.7V6c0-.28.1-.52.29-.7.21-.2.46-.28.75-.28h3zM6 5.02a.95.95 0 01.98.98v12a.95.95 0 01-.98.98H3a.95.95 0 01-.98-.98V6A.95.95 0 013 5.02h3z" /></symbol><symbol viewBox="0 0 24 24" id="comments"><path d="M21.99 4c0-1.1-.89-2-1.99-2H4c-1.1 0-2 .9-2 2v12c0 1.1.9 2 2 2h14l4 4-.01-18zM18 14H6v-2h12v2zm0-3H6V9h12v2zm0-3H6V6h12v2z" /><path d="M0 0h24v24H0z" fill="none" /></symbol><symbol viewBox="0 0 24 24" id="crop"><path d="M6.984 17.016h16.032v1.968h-4.032v4.032h-1.968v-4.032H6.984c-.53 0-1-.187-1.406-.562a2.012 2.012 0 01-.562-1.406V6.984H.984V5.016h4.032V.984h1.968v16.032zM17.016 15V6.984H9V5.016h8.016c.53 0 .984.203 1.359.609.406.375.61.828.61 1.36V15h-1.97z" /></symbol><symbol viewBox="0 0 24 24" id="crop-free"><path fill="none" d="M0 0h24v24H0z" /><path d="M3 5v4h2V5h4V3H5c-1.1 0-2 .9-2 2zm2 10H3v4c0 1.1.9 2 2 2h4v-2H5v-4zm14 4h-4v2h4c1.1 0 2-.9 2-2v-4h-2v4zm0-16h-4v2h4v4h2V5c0-1.1-.9-2-2-2z" /></symbol><symbol viewBox="0 0 24 24" id="cross-circle-outline"><path d="M6.32812 17.6719C7.92188 19.2344 9.8125 20.0156 12 20.0156s4.0625-.7812 5.625-2.3437c1.5938-1.5938 2.3906-3.4844 2.3906-5.6719s-.7968-4.0625-2.3906-5.625C16.0625 4.78125 14.1875 3.98438 12 3.98438S7.92188 4.78125 6.32812 6.375C4.76562 7.9375 3.98438 9.8125 3.98438 12s.78124 4.0781 2.34374 5.6719zM4.92188 4.96875C6.89062 3 9.25 2.01562 12 2.01562S17.0938 3 19.0312 4.96875C21 6.90625 21.9844 9.25 21.9844 12S21 17.1094 19.0312 19.0781C17.0938 21.0156 14.75 21.9844 12 21.9844s-5.10938-.9688-7.07812-2.9063C2.98438 17.1094 2.01562 14.75 2.01562 12s.96876-5.09375 2.90626-7.03125zm9.65622 3.04687l1.4063 1.40626L13.4062 12l2.5782 2.5781-1.4063 1.4063L12 13.4062l-2.57812 2.5782-1.40626-1.4063L10.5938 12 8.01562 9.42188l1.40626-1.40626L12 10.5938l2.5781-2.57818z" /></symbol><symbol viewBox="0 0 24 24" id="date-range"><path d="M18.984 20.016V9H5.016v11.016h13.968zm0-16.032c.532 0 1 .204 1.407.61C20.797 5 21 5.469 21 6v14.016c0 .53-.203 1-.61 1.406a2.011 2.011 0 01-1.406.562H5.016a2.069 2.069 0 01-1.454-.562A2.012 2.012 0 013 20.016V6c0-.531.188-1 .563-1.406.406-.407.89-.61 1.453-.61H6V2.016h2.016v1.968h7.968V2.016H18v1.968h.984zm-1.968 7.032v1.968H15v-1.968h2.016zm-4.032 0v1.968h-1.968v-1.968h1.968zm-3.984 0v1.968H6.984v-1.968H9z" /></symbol><symbol viewBox="0 0 24 24" id="directions-run"><path fill="none" d="M0 0h24v24H0z" /><path d="M13.49 5.48c1.1 0 2-.9 2-2s-.9-2-2-2-2 .9-2 2 .9 2 2 2zm-3.6 13.9l1-4.4 2.1 2v6h2v-7.5l-2.1-2 .6-3c1.3 1.5 3.3 2.5 5.5 2.5v-2c-1.9 0-3.5-1-4.3-2.4l-1-1.6c-.4-.6-1-1-1.7-1-.3 0-.5.1-.8.1l-5.2 2.2v4.7h2v-3.4l1.8-.7-1.6 8.1-4.9-1-.4 2 7 1.4z" /></symbol><symbol viewBox="0 0 448 512" id="divide-old"><path d="M224 352c35.3 0 64 28.7 64 64s-28.7 64-64 64-64-28.7-64-64 28.7-64 64-64zM224 160c-35.3 0-64-28.7-64-64s28.7-64 64-64 64 28.7 64 64-28.7 64-64 64zM416 208c17.7 0 32 14.3 32 32v32c0 17.7-14.3 32-32 32h-384c-17.7 0-32-14.3-32-32v-32c0-17.7 14.3-32 32-32h384z" /></symbol><symbol viewBox="0 0 48 48" id="divider"><path fill-rule="evenodd" d="M28 14a4 4 0 11-8 0 4 4 0 018 0zm14 8v4H6v-4h36zM24 38a4 4 0 100-8 4 4 0 000 8z" clip-rule="evenodd" /></symbol><symbol viewBox="0 0 24 24" id="done"><path fill="none" d="M0 0h24v24H0z" /><path d="M9 16.2L4.8 12l-1.4 1.4L9 19 21 7l-1.4-1.4L9 16.2z" /></symbol><symbol viewBox="0 0 16 16" id="done-all"><path d="M12 4.67l-.94-.94-4.23 4.22.94.94L12 4.67zm2.83-.94l-7.06 7.05L5 8l-.94.94 3.72 3.73 8-8-.94-.94zM.27 8.94L4 12.67l.94-.94L1.22 8l-.95.94z" /></symbol><symbol fill="none" viewBox="0 0 73 32" id="elle"><path fill="#000" fill-rule="evenodd" d="M32.21 24.46l.03-.78h.25v8.25H20v-.46h2.22V.43H20V0h8.03v.43H25.8v31.04c.53.04 1.06 0 1.1 0 2.45-.26 3.96-1.14 4.61-2.7.58-1.28.64-2.82.7-4.3zm20.5 4.31c.57-1.28.63-2.82.68-4.31l.03-.78h.25v8.25h-12.5v-.46h2.22V.43h-2.2V0h8.03v.43h-2.23v31.04c.53.04 1.06 0 1.1 0 2.45-.26 3.96-1.14 4.61-2.7zm-40.49-4.29c-.05 1.5-.1 3.04-.69 4.32-.85 2.03-3.04 2.5-4.61 2.66-.04 0-.57.05-1.1 0V16.04c.5 0 1.32.06 1.5.1.79.17 1.48.97 1.7 1.64.34 1.03.36 2.15.39 3.33l.01.67h.26V10.03h-.26l-.01.67a11.46 11.46 0 01-.39 3.33 2.54 2.54 0 01-1.69 1.62 9.7 9.7 0 01-1.51.12V.49c.53-.04 1.06 0 1.1 0 1.63.18 3.75.81 4.61 2.86.58 1.29.64 2.83.7 4.32l.02.78h.24V0H.03V.45h2.13l.04.02h.02v31H0v.47h12.5V23.7h-.25l-.03.77zm60.5.01l.03-.78H73v8.23H60.5v-.47h2.21v-31h-2.19V0H73v8.45h-.24l-.03-.78c-.05-1.5-.1-3.04-.7-4.32C71.18 1.3 69.06.67 67.43.5c-.04 0-.58-.05-1.1 0v15.27c.52 0 1.32-.07 1.5-.11a2.54 2.54 0 001.7-1.62c.34-1.03.36-2.15.38-3.34l.02-.66h.26v11.75h-.26l-.02-.67c-.02-1.19-.04-2.3-.38-3.34-.22-.67-.92-1.46-1.7-1.63-.19-.05-1-.1-1.5-.1v15.42c.52.04 1.06 0 1.1 0 1.57-.17 3.76-.63 4.61-2.66.58-1.28.64-2.83.7-4.32zM50.91 13.04h1.38c.3 0 1.46.08 1.46 1.4 0 .63-.34 1.3-1.62 1.39l1.83 2.38h-.59l-1.77-2.38h-.19v2.38h-.5v-5.17zm1.02 2.38c1.15 0 1.3-.57 1.3-.98 0-.86-.59-.99-1.19-.99h-.63v1.97h.52zm6.35.86v-3.24h-.5v3.32c0 .2-.01 1.59-1.33 1.59-1.3 0-1.32-1.4-1.32-1.6v-3.31h-.5v3.24c0 .43.04 2.08 1.82 2.08 1.79 0 1.83-1.65 1.83-2.08z" clip-rule="evenodd" /></symbol><symbol fill="none" viewBox="0 0 37 16" id="elle_small"><path fill-rule="evenodd" clip-rule="evenodd" d="M16.1071 12.2311L16.1072 12.228L16.1224 11.8389H16.2469V15.9657H9.99485V15.7363H11.1042V0.21472H10.0089L10.0079 0H13.9999H14.0181V0.212538H12.9042V15.7367C13.1684 15.7569 13.4367 15.739 13.4541 15.7363C14.6814 15.604 15.436 15.1628 15.7615 14.3871C16.0518 13.7464 16.0799 12.9762 16.1071 12.2311V12.2311ZM26.3513 14.3871C26.642 13.7455 26.6701 12.974 26.6971 12.228L26.7125 11.8389H26.8368V15.9657H20.5849V15.7363H21.6943V0.21472H20.5986L20.5978 0H24.5896H24.6081V0.212538H23.4939V15.7367C23.7582 15.7569 24.0268 15.739 24.0441 15.7363C25.2712 15.604 26.0259 15.1628 26.3513 14.3871ZM6.11215 12.243C6.0853 12.9893 6.05728 13.7606 5.76659 14.4027C5.34082 15.4177 4.24587 15.648 3.45944 15.7328C3.44202 15.7353 3.17409 15.7532 2.90915 15.7331V8.02226C3.16215 8.01865 3.56862 8.04832 3.66418 8.07245C4.05362 8.15556 4.40106 8.55326 4.51216 8.88966C4.68075 9.40318 4.69211 9.96402 4.70405 10.5579L4.71181 10.8923H4.84047V5.01525H4.71181L4.70405 5.34959C4.69211 5.94359 4.68075 6.50446 4.51216 7.01791C4.38518 7.40251 4.02088 7.74973 3.66495 7.82562C3.57145 7.84941 3.17045 7.88629 2.90915 7.88459V0.245131C3.17332 0.225027 3.44183 0.242866 3.45793 0.245131C4.27504 0.333477 5.33722 0.652953 5.7662 1.67587C6.05728 2.31829 6.0853 3.0899 6.11215 3.83617L6.12747 4.22545L6.24537 4.2253V0.00295812L0.0130696 0.00260417V0.0212928L0.0138399 0.228071H1.07883C1.07883 0.228405 1.0896 0.231102 1.10046 0.233822L1.10912 0.235999V15.7327H0V15.9683H6.25182V11.8537H6.12747L6.11215 12.243ZM36.3603 12.2458L36.3758 11.8563L36.5 11.8562V15.9707H30.2482V15.7351H31.3575V0.238395C31.3442 0.23521 31.3272 0.23082 31.3272 0.230538H30.2622L30.2614 0.00506894L36.4935 0.00535208V4.22781L36.3758 4.22802L36.3603 3.83832C36.3334 3.09225 36.3055 2.32063 36.0146 1.67842C35.5854 0.655424 34.523 0.335803 33.7062 0.247527C33.69 0.245262 33.4217 0.227494 33.1574 0.247527V7.88691C33.4186 7.88868 33.8198 7.8518 33.9133 7.82823C34.2691 7.75213 34.6335 7.4049 34.7603 7.02029C34.9287 6.5072 34.9405 5.94611 34.9522 5.35239L34.9602 5.01762H35.0888V10.8947L34.9602 10.8949L34.9522 10.56C34.9405 9.96622 34.9287 9.40559 34.7603 8.89208C34.649 8.55581 34.302 8.15817 33.9125 8.07506C33.8172 8.05071 33.4103 8.02105 33.1574 8.0248V15.7355C33.4217 15.7556 33.69 15.7378 33.7074 15.7353C34.4939 15.6505 35.5892 15.4204 36.015 14.4052C36.3055 13.7633 36.3334 12.9917 36.3603 12.2458ZM25.455 6.51878H26.1435C26.2945 6.51878 26.8763 6.55951 26.8763 7.21759C26.8763 7.53556 26.7032 7.87199 26.0662 7.91265L26.9794 9.10681H26.6848L25.8011 7.91633H25.7054V9.10681H25.455V6.51878ZM25.9631 7.70932C26.5412 7.70932 26.6186 7.42467 26.6186 7.21759C26.6186 6.78873 26.3203 6.72585 26.0221 6.72585H25.7054V7.70932H25.9631ZM29.1406 8.14186V6.51878H28.8902V8.17885C28.8902 8.27864 28.8828 8.97374 28.2274 8.97374C27.572 8.97374 27.5646 8.27864 27.5646 8.17885V6.51878H27.3142V8.14186C27.3142 8.35262 27.3363 9.18074 28.2274 9.18074C29.1185 9.18074 29.1406 8.35262 29.1406 8.14186Z" fill="#000" /></symbol><symbol fill="none" viewBox="0 0 78 32" id="elledecoration"><path fill="#000" d="M4.46 22.84v-11.4c1.2 0 1.96.38 2.26 1.14.3.76.46 1.75.46 2.98h.34V6.91h-.34a8.6 8.6 0 01-.46 3.04c-.3.78-1.05 1.18-2.26 1.18V.34c1.3 0 2.4.3 3.3.88.92.58 1.38 2.23 1.38 4.94h.34V0H0v.31h1.75v22.53H0v.32h9.67V17h-.34c0 2.65-.49 4.28-1.47 4.9-.98.63-2.1.94-3.4.94zm5.5 8.97h3.86v-.5h-3.34v-3.68h3.25v-.5h-3.25v-2.94h3.34v-.47H9.95v8.1zm10.23-8.18a4.13 4.13 0 00-2.94 1.23 4.07 4.07 0 00.03 5.84 4.13 4.13 0 004.4.96c.46-.2.87-.44 1.22-.75v-.7l-.17.18-.14.14a4.05 4.05 0 01-2.37.9 3.6 3.6 0 01-2.56-1.09 3.6 3.6 0 01-.03-5.14 3.57 3.57 0 013.26-1.03 4.57 4.57 0 011.4.61c.24.17.44.37.61.6v-.72a2.39 2.39 0 00-.34-.29 3.92 3.92 0 00-2.37-.78v.04zM77.69 17c0 2.65-.5 4.28-1.47 4.9-.98.63-2.11.94-3.4.94v-11.4c1.2 0 1.96.38 2.26 1.14.3.76.46 1.75.46 2.98h.3V6.91h-.3a8.6 8.6 0 01-.46 3.04c-.3.78-1.05 1.18-2.26 1.18V.34c1.29 0 2.39.3 3.3.88.9.58 1.35 2.23 1.35 4.94h.34V0h-9.45v.31h1.75v22.53h-1.75v.32H78V17h-.31zm-.56 5.94a.66.66 0 01-.49-.2.66.66 0 01-.2-.49c0-.19.07-.35.2-.48.14-.14.3-.2.49-.2.18 0 .34.06.48.2.14.13.21.3.23.48 0 .19-.06.35-.2.48a.7.7 0 01-.51.2zm.18-.88c0-.04-.01-.07-.04-.08a.35.35 0 00-.11-.01h-.19v.22h.16c.06 0 .11 0 .15-.02.04 0 .06-.05.06-.1h-.03zM3.18 23.72H1.6v8.1H3.41A3.84 3.84 0 007 29.4c.21-.5.32-1.02.32-1.57v-.12a3.94 3.94 0 00-1.21-2.88 3.88 3.88 0 00-2.71-1.13h-.22zm0 7.6H2.12v-7.13h1.06a3.46 3.46 0 013.62 3.56 3.44 3.44 0 01-3.62 3.56zm26.12-7.73a4.13 4.13 0 00-2.94 1.24 3.96 3.96 0 00-1.21 2.92c0 1.17.4 2.16 1.21 2.97a4 4 0 002.94 1.22 4 4 0 002.93-1.22 4 4 0 001.22-2.94 4 4 0 00-1.22-2.94 4.1 4.1 0 00-2.93-1.25zm0 7.85h-.03a3.55 3.55 0 01-2.61-1.08 3.52 3.52 0 01-1.08-2.58c0-1.02.36-1.89 1.08-2.6a3.55 3.55 0 012.6-1.09c1 0 1.86.36 2.58 1.08a3.56 3.56 0 011.08 2.61c0 1-.36 1.86-1.06 2.56a3.6 3.6 0 01-2.56 1.1zm34.6-7.85a4.13 4.13 0 00-2.94 1.24 3.96 3.96 0 00-1.21 2.92c0 1.17.4 2.16 1.21 2.97a4 4 0 002.94 1.22 4 4 0 002.93-1.22 4 4 0 001.22-2.94 4 4 0 00-1.22-2.94 4.1 4.1 0 00-2.93-1.25zm0 7.85h-.03a3.55 3.55 0 01-2.6-1.08 3.52 3.52 0 01-1.09-2.58c0-1.02.36-1.89 1.08-2.6a3.55 3.55 0 012.6-1.09c1 0 1.86.36 2.58 1.08a3.56 3.56 0 011.08 2.61c0 1-.36 1.86-1.06 2.56a3.6 3.6 0 01-2.56 1.1zM32.39 17h-.32c0 2.65-.48 4.28-1.45 4.9a6.1 6.1 0 01-3.38.94V.31h1.74V0h-6.2v.31h1.74v22.53h-1.74v.32h9.6V17zm17.31 7.19h2.06v7.62h.53V24.2h2.1v-.47H49.7v.47zm.34-1.35V.31h1.72V0h-6.18v.31h1.72v22.53h-1.72v.32h9.58V17h-.31c0 2.65-.48 4.28-1.45 4.9-.97.63-2.09.94-3.36.94zm6.5 8.97h.52v-8.1h-.53v8.1zm-14.8 0h.6l1.06-2.65h3.4l1.1 2.65h.58l-3.33-8.34-3.4 8.34zm1.85-3.12l1.53-3.85 1.5 3.82h-3.03v.03zm-5.15-.85c.4-.14.72-.38.97-.71.25-.34.37-.71.37-1.13 0-.02 0-.05-.02-.08a.26.26 0 01-.01-.08v-.09c0-.33-.07-.64-.22-.92a2.2 2.2 0 00-.56-.7c-.2-.13-.44-.23-.69-.32a2.45 2.45 0 00-.9-.1.51.51 0 01-.13 0H36.1v8.1h.53v-3.84h.25l2.59 3.81h.62l-2.65-3.81H37.5c.17 0 .34-.01.5-.03.17-.02.32-.07.47-.13l-.03.03zm-1.81-.34v-3.31h.78a2.72 2.72 0 011.15.25c.19.14.35.33.49.56.13.23.2.48.2.75 0 .02 0 .04-.02.06a.14.14 0 00-.01.07c0 .52-.16.92-.47 1.2-.31.28-.76.42-1.34.42h-.78zm40.84 3.22l-6.77-7.1v8.2h.53V24.9L77.97 32v-8.28h-.5v7zm-.31-9.06h-.03c-.17 0-.31.05-.42.17a.57.57 0 00-.18.42c0 .15.06.28.18.4.11.1.25.16.42.16.16 0 .3-.05.42-.17a.54.54 0 00.17-.39v-.03a.54.54 0 00-.17-.4.57.57 0 00-.42-.16h.03zm.18 1l-.21-.35H77v.35h-.12v-.82h.34c.06 0 .12.02.17.07.05.04.08.09.08.15v.03c0 .05-.02.09-.06.13a.21.21 0 01-.16.06l.22.38h-.13z" /></symbol><symbol fill="none" viewBox="0 0 39 16" id="elledecoration_small"><path fill="#000" d="M2.23 11.42v-5.7c.6 0 .98.19 1.13.57.15.38.23.88.23 1.5h.17V3.44h-.17a4.3 4.3 0 01-.23 1.53c-.15.39-.53.58-1.13.58V.17c.65 0 1.2.15 1.65.44.46.3.7 1.11.7 2.47h.16V0H0v.16h.87v11.26H0v.16h4.84V8.5h-.18c0 1.32-.24 2.14-.73 2.45-.49.32-1.05.47-1.7.47zm2.75 4.49H6.9v-.25H5.24V13.8h1.62v-.25H5.24V12.1h1.67v-.23H4.98v4.05zm5.11-4.1c-.57.01-1.06.22-1.46.62a2.03 2.03 0 00.02 2.92 2.07 2.07 0 002.2.48c.22-.1.42-.22.6-.38v-.34l-.09.09-.07.07a2.02 2.02 0 01-1.18.45 1.8 1.8 0 01-1.28-.55 1.8 1.8 0 01-.02-2.57 1.78 1.78 0 011.63-.51 2.29 2.29 0 01.7.3c.13.08.23.18.31.3v-.36a1.2 1.2 0 00-.17-.14 1.96 1.96 0 00-1.19-.4v.02zM38.84 8.5c0 1.32-.24 2.14-.73 2.45-.49.32-1.05.47-1.7.47v-5.7c.6 0 .98.19 1.13.57.15.38.23.88.23 1.5h.15V3.44h-.15a4.3 4.3 0 01-.23 1.53c-.15.39-.53.58-1.13.58V.17c.65 0 1.2.15 1.65.44.45.3.67 1.11.67 2.47h.18V0h-4.73v.16h.87v11.26h-.87v.16H39V8.5h-.16zm-.28 2.97a.33.33 0 01-.24-.1.33.33 0 01-.1-.24c0-.1.03-.18.1-.25.07-.06.15-.1.24-.1.1 0 .18.04.24.1.07.07.11.15.12.24 0 .1-.03.18-.1.25a.35.35 0 01-.26.1zm.1-.44c0-.02-.01-.03-.03-.04H38.48v.1h.16c.02 0 .03-.03.03-.06h-.01zm-37.07.83H.8v4.05H1.7a1.92 1.92 0 001.8-1.2c.11-.26.17-.52.17-.79v-.06a1.97 1.97 0 00-.61-1.44 1.94 1.94 0 00-1.36-.56h-.11zm0 3.8h-.53v-3.57h.53a1.73 1.73 0 011.81 1.78 1.72 1.72 0 01-1.8 1.79zm13.06-3.86c-.57 0-1.06.21-1.47.61-.4.4-.6.9-.6 1.46 0 .59.2 1.08.6 1.49.4.4.9.6 1.47.6a2 2 0 001.46-.6c.41-.4.61-.9.61-1.47a2 2 0 00-.6-1.47c-.41-.4-.9-.61-1.47-.62zm0 3.92h-.02c-.5 0-.94-.18-1.3-.54a1.76 1.76 0 01-.54-1.29c0-.51.18-.94.54-1.3.36-.36.8-.54 1.3-.54s.93.18 1.29.54c.36.36.54.79.54 1.3 0 .5-.18.93-.53 1.28a1.8 1.8 0 01-1.28.55zm17.3-3.92c-.57 0-1.06.21-1.47.61-.4.4-.6.9-.6 1.46 0 .59.2 1.08.6 1.49.4.4.9.6 1.47.6a2 2 0 001.47-.6c.4-.4.6-.9.6-1.47a2 2 0 00-.6-1.47c-.41-.4-.9-.61-1.47-.62zm0 3.92h-.02c-.5 0-.94-.18-1.3-.54a1.76 1.76 0 01-.54-1.29c0-.51.18-.94.54-1.3.36-.36.8-.54 1.3-.54s.93.18 1.29.54c.36.36.54.79.54 1.3 0 .5-.18.93-.53 1.28a1.8 1.8 0 01-1.28.55zM16.19 8.5h-.15c0 1.32-.24 2.14-.73 2.45-.48.32-1.05.47-1.7.47V.16h.88V0h-3.1v.16h.87v11.26h-.87v.16h4.8V8.5zm8.66 3.6h1.03v3.8h.27v-3.8h1.04v-.24h-2.34v.23zm.17-.68V.16h.86V0h-3.09v.16h.86v11.26h-.86v.16h4.8V8.5h-.17c0 1.32-.24 2.14-.72 2.45-.48.32-1.04.47-1.68.47zm3.25 4.49h.26v-4.05h-.26v4.05zm-7.4 0h.3l.53-1.33h1.7l.55 1.33h.3l-1.68-4.18-1.7 4.18zm.92-1.57l.77-1.92.75 1.9h-1.52v.02zm-2.57-.42c.2-.07.36-.2.48-.36a.92.92 0 00.19-.56v-.04l-.02-.04v-.05a.99.99 0 00-.1-.46 1.1 1.1 0 00-.29-.35c-.1-.06-.21-.11-.34-.15a1.23 1.23 0 00-.45-.06H18.05v4.06h.26v-1.93h.13l1.3 1.91h.3L18.73 14h.03l.25-.02a.86.86 0 00.23-.06l-.01.01zm-.9-.17v-1.66H18.7a1.36 1.36 0 01.58.13c.1.07.18.17.24.28.07.11.1.24.1.38v.03l-.01.03c0 .26-.08.46-.23.6-.16.14-.38.21-.68.21h-.39zm20.41 1.6l-3.38-3.54v4.1h.26v-3.46L38.98 16v-4.14h-.25v3.5zm-.15-4.52h-.02a.29.29 0 00-.2.08.29.29 0 00-.1.21c0 .08.04.14.1.2.05.06.12.09.2.09.09 0 .16-.03.21-.09a.27.27 0 00.09-.2v-.01a.27.27 0 00-.09-.2.29.29 0 00-.2-.08zm.1.5l-.12-.17h-.06v.17h-.06v-.4h.17c.03 0 .06 0 .09.02a.1.1 0 01.03.08v.02c0 .02 0 .04-.03.06a.1.1 0 01-.07.03l.1.19h-.06z" /></symbol><symbol fill="none" viewBox="0 0 64 32" id="ellegirl"><g fill-rule="evenodd" clip-path="url(#ellegirl_clip0)" clip-rule="evenodd"><path fill="#000" d="M29 22.5v-3.49h-.26c0 1.43-.42 3.28-2.14 3.28h-.58V16h.21a1.03 1.03 0 01.73.32c.47.32.53 1.32.53 1.95v.06h.2v-4.97h-.2c0 .53-.05 1.74-.53 2.11-.2.18-.46.3-.73.32h-.2V9.71h.62a1.7 1.7 0 011.3.58c.58.68.86 1.55.8 2.43v.06h.2V9.5h-5.34v.21h.84V22.3h-.84v.21h5.4zm-7.26 0v-3.49h-.2v.05c-.06 1.43-.48 3.23-2.2 3.23h-.58V9.7h.94V9.5h-3.5v.21h.94V22.3h-.94v.21h5.54zm-7.15 0v-3.49h-.26c0 1.43-.42 3.28-2.2 3.28h-.58V9.7h1V9.5H8.99v.21h1V22.3h-1v.21h5.6zm-8.2 0v-3.49h-.21c-.05 1.43-.42 3.28-2.2 3.28h-.52V16h.16a1.03 1.03 0 01.73.32c.47.32.57 1.32.57 1.95v.06h.21v-4.97h-.2c0 .53-.11 1.74-.58 2.11-.2.18-.46.3-.73.32h-.16V9.71h.63c1.57 0 2.09 1.7 2.09 3.01v.06h.2V9.5H1v.21h.84V22.3H1v.21h5.39z" /><path fill="#F599B5" d="M47.16 9.88a2.4 2.4 0 11-.06-4.8 2.4 2.4 0 01.06 4.8zm8.5-.33c-1.5 0-1.8.62-1.8 1.2V26.3h-3.82V5.56h3.13l.26.94a3.62 3.62 0 012.77-1.2c.47.03.93.15 1.35.37v4.28a6.29 6.29 0 00-1.9-.4zm-10.43.8h3.82V26.3h-3.82V10.35zm-4.78 12.1a1.36 1.36 0 01-1.06.47c-1.3 0-1.46-1.06-1.46-7.38 0-6.2.48-6.75 1.6-6.75.33.02.64.12.92.29v13.36zm3.8 3.26V5.56h-3.8v.72a2.86 2.86 0 00-2.26-.98c-3.06 0-4.2 3.78-4.2 10.17 0 7.12 1.03 10.35 4.2 10.35.84.02 1.65-.3 2.26-.87v.77c0 1.96-.55 3.26-2.44 3.26a5.94 5.94 0 01-3.03-.87l-.65 2.84A9.01 9.01 0 0038.66 32c3.9 0 5.58-2.5 5.58-6.28zm17.02.59c-2.45 0-3.07-1.67-3.07-3.82V0h3.83v22.48a.87.87 0 00.95 1.02h.51v2.8h-2.22z" /></g><defs></defs></symbol><clipPath id="ellegirl_clip0"><path fill="#fff" d="M0 0h64v32H0z" /></clipPath><symbol fill="none" viewBox="0 0 28 32" id="ellegirl_small"><path fill="#F599B5" d="M11.74 12.53h-.04c-.58 0-1.08-.2-1.5-.62-.4-.42-.6-.92-.6-1.5 0-.59.2-1.09.6-1.5.42-.42.92-.63 1.5-.63.6 0 1.1.21 1.51.63.42.41.63.91.63 1.5 0 .58-.2 1.07-.61 1.48-.4.4-.9.62-1.5.64zm7.55-.31c-.65 0-1.08.11-1.28.34-.2.23-.3.47-.3.72v13.69h-3.43V8.72h2.8l.26.81c.29-.31.64-.57 1.05-.76.4-.2.85-.3 1.34-.3h.06c.23.02.45.06.64.1.2.06.4.14.59.24l-.04 3.78a4.8 4.8 0 00-1.66-.37h-.03zm-9.29.72h3.43v14.03H10V12.94zM5.76 23.59c-.13.13-.27.23-.43.3-.15.07-.32.11-.48.11H4.8c-.58 0-.95-.39-1.08-1.16-.14-.77-.2-2.55-.2-5.34 0-2.73.1-4.4.32-5.02.22-.61.59-.92 1.09-.92.17 0 .32.03.46.08.13.05.25.11.36.17V23.6zm3.36 2.88V8.72H5.76v.62a2.47 2.47 0 00-1.92-.87h-.1c-.69 0-1.27.2-1.74.6-.47.41-.86 1-1.15 1.77-.3.77-.5 1.72-.65 2.83-.13 1.12-.2 2.37-.2 3.77 0 3.14.27 5.45.8 6.92.54 1.47 1.52 2.2 2.94 2.2h.07a2.83 2.83 0 001.95-.78v.69c0 .85-.15 1.55-.46 2.08-.3.53-.87.8-1.71.8a5.11 5.11 0 01-2.74-.79l-.57 2.5c.55.34 1.18.58 1.9.72.7.15 1.36.22 1.97.22 1.74 0 3-.5 3.8-1.52a6.36 6.36 0 001.17-4.01zm15.2.5c-1.1 0-1.82-.32-2.19-.97a4.74 4.74 0 01-.55-2.38V3.82h3.43v19.8c0 .3.06.52.2.66.12.15.33.22.62.22h.47v2.47h-1.98z" /><path fill="#000" d="M20.98 7.84V5.75h-.15c0 .42-.1.85-.27 1.3-.18.44-.54.67-1.09.67h-.34V3.9h.12c.09 0 .17.02.26.06.08.04.15.1.22.15.14.09.23.25.26.5.04.25.05.47.05.66v.03h.13v-3h-.13c0 .17-.01.4-.05.69-.03.3-.12.49-.26.6a.61.61 0 01-.22.13.72.72 0 01-.26.05h-.12V.13H19.54c.17 0 .32.03.45.09a.9.9 0 01.33.25c.21.19.35.42.41.69.07.27.1.53.1.78v.03h.12V0h-3.3v.13h.5v7.59h-.5v.12h3.33zm-5.03 0V5.75h-.12c-.03.44-.13.88-.3 1.31-.18.44-.54.66-1.09.66h-.35V.12h.6V0h-2.17v.13h.57v7.59h-.57v.12h3.43zm-4.97 0V5.75h-.16c0 .42-.09.85-.26 1.3-.18.44-.54.67-1.09.67h-.38V.12h.63V0h-2.2v.13h.6v7.59h-.6v.12h3.46zm-5.63 0V5.75h-.13c-.02.42-.11.85-.28 1.3-.17.44-.52.67-1.07.67h-.31V3.9h.09c.08 0 .16.02.24.06.07.04.14.1.2.15.15.09.25.25.3.5.05.25.08.47.08.66v.03h.12v-3h-.12c0 .17-.03.4-.08.69-.05.3-.15.49-.3.6a.6.6 0 01-.44.19h-.1V.11h.38c.49 0 .82.2 1 .61.2.41.3.81.3 1.2v.04h.12V0H2v.13h.5v7.59h-.5v.12h3.34z" /></symbol><symbol viewBox="0 0 24 24" id="error"><path d="M12.984 12.984v-6h-1.968v6h1.968zm0 4.032V15h-1.968v2.016h1.968zM4.922 4.969C6.89 3 9.25 2.016 12 2.016s5.094.984 7.031 2.953C21 6.906 21.984 9.25 21.984 12s-.984 5.11-2.953 7.078c-1.937 1.938-4.281 2.906-7.031 2.906s-5.11-.968-7.078-2.906C2.984 17.11 2.016 14.75 2.016 12s.968-5.094 2.906-7.031z" /></symbol><symbol viewBox="0 0 48 48" id="expert"><path fill-rule="evenodd" d="M24 6l16 4.004-10.252 2.566c1.47 1.531 2.205 3.357 2.205 5.476 0 2.183-.78 4.054-2.339 5.613-1.56 1.56-3.43 2.339-5.614 2.339-2.183 0-4.055-.78-5.614-2.339-1.56-1.56-2.34-3.43-2.34-5.613 0-2.12.736-3.945 2.206-5.476l-8.12-2.033 1.86 7.452H8l1.877-7.515L8 10.004 24 6zM13.427 30.27a32.179 32.179 0 015.199-1.64L24 34l5.37-5.365c1.674.374 3.378.919 5.11 1.635 3.68 1.435 5.52 3.337 5.52 5.707V40H8v-4.023c0-2.37 1.809-4.272 5.427-5.707z" clip-rule="evenodd" /></symbol><symbol viewBox="0 0 24 24" id="file-download"><path d="M5.016 18h13.968v2.016H5.016V18zm13.968-9L12 15.984 5.016 9H9V3h6v6h3.984z" /></symbol><symbol viewBox="0 0 24 24" id="filter-1"><path fill="none" d="M0 0h24v24H0z" /><path d="M3 5H1v16c0 1.1.9 2 2 2h16v-2H3V5zm11 10h2V5h-4v2h2v8zm7-14H7c-1.1 0-2 .9-2 2v14c0 1.1.9 2 2 2h14c1.1 0 2-.9 2-2V3c0-1.1-.9-2-2-2zm0 16H7V3h14v14z" /></symbol><symbol viewBox="0 0 24 24" id="filter-2"><path fill="none" d="M0 0h24v24H0z" /><path d="M3 5H1v16c0 1.1.9 2 2 2h16v-2H3V5zm18-4H7c-1.1 0-2 .9-2 2v14c0 1.1.9 2 2 2h14c1.1 0 2-.9 2-2V3c0-1.1-.9-2-2-2zm0 16H7V3h14v14zm-4-4h-4v-2h2a2 2 0 002-2V7a2 2 0 00-2-2h-4v2h4v2h-2a2 2 0 00-2 2v4h6v-2z" /></symbol><symbol viewBox="0 0 17 16" id="flip"><path d="M2.5 4l12-2v12l-12-2V4z" /></symbol><symbol viewBox="0 0 24 24" id="folder"><path d="M9.984 3.984L12 6h8.016c.53 0 .984.203 1.359.61.406.406.61.874.61 1.406V18c0 .531-.204 1-.61 1.406-.375.407-.828.61-1.36.61H3.986c-.532 0-1-.203-1.407-.61A2.011 2.011 0 012.016 18V6c0-.531.187-1 .562-1.406.406-.407.875-.61 1.406-.61h6z" /></symbol><symbol viewBox="0 0 24 24" id="format-clear"><path d="M6 5.01562H20.0156V8.01562H14.2031L12.6094 11.7656L10.5 9.70312L11.2031 8.01562H8.8125L6 5.20312V5.01562ZM3.28125 5.01562L3.5625 5.25L18 19.7344L16.7344 21L11.0625 15.3281L9.51562 18.9844H6.51562L8.95312 13.2188L2.01562 6.28125L3.28125 5.01562Z" /></symbol><symbol fill="none" viewBox="0 0 65 33" id="gm"><path fill="#000" d="M30.32 8.37c.89 0 1.72.2 2.48.58l-.28 1.29-.14.01a5.36 5.36 0 00-1.18-.55 3.5 3.5 0 00-1.1-.18c-.88 0-1.54.28-1.97.82-.43.54-.65 1.4-.65 2.56 0 1.1.2 1.91.61 2.42.4.49 1.05.73 1.93.73a3.86 3.86 0 001.46-.26l.04-.88-.04-1.33 1.28-.1-.03 1.22.04 1.97a9.5 9.5 0 01-2.83.53c-1.3 0-2.26-.37-2.9-1.1a4.63 4.63 0 01-.97-3.14c0-1.48.37-2.62 1.1-3.4.74-.8 1.79-1.2 3.15-1.2zM39.27 13.64c.6.97 1.3 2.02 2.12 3.13l-.01.16c-.43.14-.86.24-1.3.28l-.17-.1a72.81 72.81 0 01-1.77-3.1h-1.43v.37l.06 2.71H35.4l.09-2.6-.1-6.03 2.88-.01c.86 0 1.52.22 1.98.66.47.43.7 1.05.7 1.85 0 .58-.15 1.1-.45 1.56-.29.46-.7.83-1.22 1.12zm-2.54-.76l1.45.04c.9-.27 1.34-.9 1.34-1.85 0-.5-.14-.88-.41-1.13-.27-.25-.67-.38-1.22-.4l-1.12.04-.04 3.3zM50 17.09h-1.4l-.2-.97-.36-1.2-1.8-.03-1.62.04-.4 1.12-.2 1.04h-1.37l3.02-8.63h1.6L50 17.1zm-2.3-3.3l-1.22-3.97h-.1L45 13.8l1.33.02 1.36-.02zM55 8.45c.85 0 1.5.22 1.96.67.46.44.7 1.08.7 1.9 0 .98-.3 1.74-.89 2.3a3.3 3.3 0 01-2.4.85h-.93v.2l.06 2.72h-1.38l.09-2.6-.1-6.03L55 8.45zm-.23 4.65c.48-.1.85-.31 1.1-.63.25-.33.38-.77.38-1.32 0-.54-.14-.94-.41-1.2-.27-.26-.67-.4-1.22-.41l-1.12.04-.05 3.5 1.32.02zM64.9 15.9l.09.13-.1 1.06h-5l.1-2.6-.1-6.03h5.03l.08.12-.1 1.07-2.01-.06-1.6.01-.05 2.52 1.53.02 1.4-.04.1.11-.11 1.06-1.5-.04-1.43.03-.02 1.12.04 1.58 1.61.01 2.05-.06zM35.1 30.76h-1.22l-.17-2.53-.4-3.77h-.08l-2.18 5.38h-1.08l-2.02-5.38h-.12l-.4 3.65-.2 2.65h-1.16l.89-8.34h1.55l.4 1.25 1.62 4.43h.1l1.72-4.47.4-1.2h1.54l.8 8.33zM42.7 29.62l.09.12-.1 1.02h-5l.1-2.5-.1-5.84h5.03l.08.12-.1 1.02-2.01-.05-1.61.02-.04 2.43 1.53.02 1.4-.04.09.1-.1 1.03-1.5-.04-1.43.03-.02 1.08.04 1.53 1.61.02 2.05-.07zM48.15 22.37c1.22 0 2.15.34 2.8 1.01.65.68.98 1.65.98 2.91 0 1.47-.36 2.6-1.07 3.38-.72.78-1.74 1.17-3.08 1.17-.38 0-.83 0-1.36-.02-.52-.01-1.02-.03-1.47-.06h-.02l.1-2.5-.1-5.84h.02l3.2-.05zm-.13 7.4c.81 0 1.43-.26 1.85-.79.43-.52.64-1.32.64-2.39s-.2-1.86-.62-2.36c-.4-.51-1.02-.77-1.84-.77-.49 0-1.06.02-1.73.05l-.07 4.63.04 1.55a34.82 34.82 0 001.73.09zM55.54 28.14l.07 2.62h-1.39l.1-2.5-.1-5.84h1.4l-.08 5.72zM65 30.76h-1.4l-.2-.93-.37-1.16-1.79-.04-1.62.04-.4 1.1-.21 1h-1.36l3.02-8.35h1.6L65 30.76zm-2.3-3.18l-1.22-3.85h-.1L60 27.58l1.33.03 1.36-.03z" /><ellipse fill="#000" rx="2.94" ry="2.95" transform="rotate(30.08 -51.9 21.95) skewX(.16)" /><path fill="#000" d="M21.98 8.1c-2.36 1.04-3.86-1.83-3.86-1.83S18 3.4 20.75 3.3c2.74-.1 3.85-1.2 3.85-1.2s-.25 4.95-2.62 6z" /><ellipse fill="#000" rx="2.94" ry="2.95" transform="rotate(30.08 -37.33 18.77) skewX(.16)" /><ellipse fill="#000" rx="2.94" ry="2.95" transform="rotate(30.08 -40.56 31.36) skewX(.16)" /><ellipse fill="#000" rx="2.94" ry="2.95" transform="rotate(30.08 -12.77 25.36) skewX(.16)" /><ellipse fill="#000" rx="2.94" ry="2.95" transform="rotate(30.08 -16.69 38.14) skewX(.16)" /><ellipse fill="#000" rx="2.94" ry="2.95" transform="rotate(30.08 -23.62 15.09) skewX(.16)" /><ellipse fill="#000" rx="2.94" ry="2.95" transform="rotate(30.08 -26.16 27.5) skewX(.16)" /><ellipse fill="#000" rx="2.94" ry="2.95" transform="rotate(30.08 -30.08 40.27) skewX(.16)" /><path stroke="#000" stroke-linecap="round" stroke-width="1.33" d="M15.12 8.05c1.6-1.4 2.83-4 1.04-7.05" /></symbol><symbol fill="none" viewBox="0 0 26 33" id="gm_small"><ellipse fill="#000" rx="2.94" ry="2.95" transform="rotate(30.08 -51.9 21.95) skewX(.16)" /><path fill="#000" d="M21.98 8.1c-2.36 1.04-3.86-1.83-3.86-1.83S18 3.4 20.75 3.3c2.74-.1 3.85-1.2 3.85-1.2s-.25 4.95-2.62 6z" /><ellipse fill="#000" rx="2.94" ry="2.95" transform="rotate(30.08 -37.33 18.77) skewX(.16)" /><ellipse fill="#000" rx="2.94" ry="2.95" transform="rotate(30.08 -40.56 31.36) skewX(.16)" /><ellipse fill="#000" rx="2.94" ry="2.95" transform="rotate(30.08 -12.77 25.36) skewX(.16)" /><ellipse fill="#000" rx="2.94" ry="2.95" transform="rotate(30.08 -16.69 38.14) skewX(.16)" /><ellipse fill="#000" rx="2.94" ry="2.95" transform="rotate(30.08 -23.62 15.09) skewX(.16)" /><ellipse fill="#000" rx="2.94" ry="2.95" transform="rotate(30.08 -26.16 27.5) skewX(.16)" /><ellipse fill="#000" rx="2.94" ry="2.95" transform="rotate(30.08 -30.08 40.27) skewX(.16)" /><path stroke="#000" stroke-linecap="round" stroke-width="1.33" d="M15.12 8.05c1.6-1.4 2.83-4 1.04-7.05" /></symbol><symbol viewBox="0 0 24 24" id="h2"><path d="M0 19V5h2.999v6H8V5h3v14H8v-5.5H3V19H0zM13.127 19v-2.104l4.93-4.552c.63-.602 1.11-1.126 1.44-1.571.33-.445.494-.942.494-1.49 0-.608-.203-1.086-.609-1.437-.401-.355-.906-.533-1.515-.533-.63 0-1.14.191-1.528.573-.383.378-.573.897-.568 1.558h-2.78c0-.904.206-1.688.616-2.353.41-.666.983-1.18 1.718-1.545.739-.364 1.593-.546 2.563-.546.991 0 1.855.175 2.59.526.739.346 1.314.827 1.724 1.443.41.612.615 1.317.615 2.118 0 .521-.103 1.036-.31 1.544-.208.508-.573 1.072-1.096 1.693-.519.616-1.254 1.355-2.205 2.218l-2.022 1.976v.095H23V19h-9.873z" /></symbol><symbol viewBox="0 0 24 24" id="h3"><path d="M0 19V5h3v5.995h5V5h2.998v14H8v-5.5H3V19H0zM18.579 19c-1.032 0-1.947-.17-2.745-.512-.798-.342-1.426-.817-1.885-1.424a3.538 3.538 0 01-.716-2.103h3c.027.497.261.898.702 1.204.445.306.995.46 1.65.46.684 0 1.241-.169 1.672-.506.436-.342.652-.783.647-1.324.005-.55-.227-.998-.695-1.344-.463-.35-1.093-.526-1.892-.526h-1.314v-2.116h1.314c.68 0 1.232-.164 1.658-.492.427-.333.638-.768.633-1.305.005-.514-.178-.931-.55-1.25-.367-.32-.85-.48-1.452-.48-.61 0-1.13.156-1.561.466-.431.31-.656.725-.674 1.244h-2.855c.013-.785.245-1.477.694-2.076.45-.603 1.055-1.073 1.817-1.41.765-.337 1.63-.506 2.593-.506.973 0 1.823.17 2.552.512.73.342 1.296.803 1.7 1.384.408.577.61 1.225.605 1.943.005.763-.24 1.4-.736 1.91-.49.51-1.13.834-1.92.971v.107c1.037.124 1.826.47 2.367 1.038.546.568.817 1.275.812 2.123a3.252 3.252 0 01-.695 2.069c-.463.603-1.103 1.078-1.92 1.424-.816.346-1.751.519-2.806.519z" /></symbol><symbol viewBox="0 0 24 24" id="highlighter"><path d="M3 18.9368L6.30616 20L7.47914 18.823L5.26091 16.597L3 18.9368ZM7.12311 10.9678C6.94892 11.1221 6.82264 11.3234 6.75934 11.5477C6.69603 11.772 6.69838 12.0099 6.76609 12.2329L7.19789 13.6549L5.51271 15.3463L8.69678 18.5414L10.3796 16.8527L11.7938 17.287C12.2481 17.4264 12.7418 17.2867 13.0561 16.9291L14.2324 15.5465L8.49693 9.79112L7.12311 10.9678ZM20.4679 5.63214L18.3767 3.53372C17.6987 2.85339 16.6105 2.81919 15.8911 3.45569L9.30494 9.09885L14.9223 14.736L20.5456 8.12667C21.1803 7.40484 21.1462 6.3128 20.4679 5.63214Z" /></symbol><symbol viewBox="0 0 58 58" id="html"><path d="M50.95 12.19l-1.36-1.36-9.5-9.5v-.01L39.3.55A1.87 1.87 0 0037.98 0H8.96C7.78 0 6.5.92 6.5 2.93V56c0 .84.84 1.65 1.84 1.9l.15.05c.15.03.31.05.47.05h40.08c.16 0 .32-.02.47-.05.05 0 .1-.03.15-.04 1-.26 1.84-1.07 1.84-1.91V13.98c0-.77-.1-1.34-.55-1.8zM39.5 3.56L47.94 12H39.5V3.56zM8.96 56c-.07 0-.13-.03-.2-.05a.46.46 0 01-.26-.41V41h41v14.54c0 .18-.11.34-.27.41-.06.02-.12.05-.2.05H8.97zM8.5 39V2.93c0-.22.03-.93.46-.93h28.6c-.04.13-.06.26-.06.4V14h11.6c.14 0 .27-.03.4-.06V39h-41z" /><path d="M16.81 48.34h-4.36v-4.42h-1.66V54h1.66v-4.54h4.36V54h1.64V43.92h-1.64zM20.44 45.05h3.01V54h1.65v-8.95h3.01v-1.13h-7.67zM34.73 50.81l-3-6.89h-1.67V54h1.67v-6.93l2.27 5.6h1.45l2.25-5.6V54h1.67V43.92H37.7zM43.57 43.92H41.9V54h6.3v-1.24h-4.63zM24.2 17.3a1 1 0 00-1.4 0l-6 6a1 1 0 000 1.4l6 6a1 1 0 001.4 0 1 1 0 000-1.4L18.92 24l5.3-5.3a1 1 0 000-1.4zM36.2 17.3a1 1 0 10-1.4 1.4l5.29 5.3-5.3 5.3a1 1 0 101.42 1.4l6-6a1 1 0 000-1.4l-6-6z" /></symbol><symbol viewBox="0 0 48 48" id="image"><path d="M16.969 27l-6.938 9H37.97l-9-12-6.938 9-5.062-6zM42 37.969c0 1.062-.406 2-1.219 2.812-.812.813-1.75 1.219-2.812 1.219H10.03c-1.062 0-2-.406-2.812-1.219C6.406 39.97 6 39.031 6 37.97V10.03c0-1.062.406-2 1.219-2.812C8.03 6.406 8.969 6 10.03 6H37.97c1.062 0 2 .406 2.812 1.219C41.594 8.03 42 8.969 42 10.03V37.97z" /></symbol><symbol viewBox="0 0 16 16" id="image-old"><path d="M14.5 16h-13A1.5 1.5 0 0 1 0 14.5v-13A1.5 1.5 0 0 1 1.5 0h13A1.5 1.5 0 0 1 16 1.5v13a1.5 1.5 0 0 1-1.5 1.5zM3.5 3.75a1.75 1.75 0 1 0 0 3.5 1.75 1.75 0 0 0 0-3.5zM2 12h12V8.5l-2.735-2.735a.375.375 0 0 0-.53 0L6.5 10 4.765 8.265a.375.375 0 0 0-.53 0L2 10.5V12z" /></symbol><symbol viewBox="0 0 24 24" id="info"><path d="M0 0h24v24H0z" fill="none" /><path d="M12 2C6.48 2 2 6.48 2 12s4.48 10 10 10 10-4.48 10-10S17.52 2 12 2zm1 15h-2v-6h2v6zm0-8h-2V7h2v2z" /></symbol><symbol viewBox="0 0 24 24" id="instagram"><path fill-rule="evenodd" d="M2 11.6c0-3.36 0-5.04.654-6.324a6 6 0 012.622-2.622C6.56 2 8.24 2 11.6 2h.8c3.36 0 5.04 0 6.324.654a6 6 0 012.622 2.622C22 6.56 22 8.24 22 11.6v.8c0 3.36 0 5.04-.654 6.324a6 6 0 01-2.622 2.622C17.44 22 15.76 22 12.4 22h-.8c-3.36 0-5.04 0-6.324-.654a6 6 0 01-2.622-2.622C2 17.44 2 15.76 2 12.4v-.8zm15 .4a5 5 0 11-10 0 5 5 0 0110 0zm.5-4a1.5 1.5 0 100-3 1.5 1.5 0 000 3z" clip-rule="evenodd" /></symbol><symbol viewBox="0 0 16 16" id="instagram2"><path d="M7.998 4.412a3.584 3.584 0 0 0-3.589 3.59 3.584 3.584 0 0 0 3.589 3.591 3.584 3.584 0 0 0 3.588-3.59 3.584 3.584 0 0 0-3.588-3.591zm0 5.925a2.338 2.338 0 0 1-2.333-2.335 2.336 2.336 0 0 1 2.333-2.334 2.336 2.336 0 0 1 2.333 2.334 2.338 2.338 0 0 1-2.333 2.335zm4.572-6.072a.835.835 0 0 1-.837.837.837.837 0 1 1 .837-.837zm2.377.85c-.053-1.122-.31-2.116-1.13-2.935-.819-.818-1.812-1.075-2.934-1.13-1.155-.066-4.619-.066-5.774 0-1.118.052-2.112.309-2.933 1.127-.822.82-1.075 1.813-1.13 2.935-.066 1.156-.066 4.622 0 5.778.052 1.122.308 2.115 1.13 2.934.821.819 1.811 1.075 2.933 1.132 1.155.065 4.619.065 5.774 0 1.122-.054 2.115-.31 2.933-1.132.819-.819 1.075-1.812 1.13-2.934.066-1.156.066-4.619 0-5.775zm-1.493 7.015a2.363 2.363 0 0 1-1.33 1.332c-.922.365-3.108.281-4.126.281-1.019 0-3.208.081-4.126-.281a2.363 2.363 0 0 1-1.33-1.332c-.366-.921-.282-3.109-.282-4.128 0-1.018-.081-3.209.281-4.128a2.363 2.363 0 0 1 1.33-1.331c.922-.366 3.108-.281 4.127-.281 1.018 0 3.207-.082 4.125.281a2.363 2.363 0 0 1 1.331 1.331c.365.922.281 3.11.281 4.128 0 1.02.084 3.21-.281 4.128z" /></symbol><symbol viewBox="0 0 24 24" id="italic"><path d="M9.98438 3.98438H18V6.98438H15.1875L11.8125 15H14.0156V18H6V15H8.8125L12.1875 6.98438H9.98438V3.98438Z" /></symbol><symbol viewBox="0 0 24 24" id="keyboard-arrow"><path d="M8.578 16.36l4.594-4.594-4.594-4.594 1.406-1.406 6 6-6 6-1.406-1.407z" /></symbol><symbol viewBox="0 0 24 24" id="library-books"><path d="M0 0h24v24H0z" fill="none" /><path d="M4 6H2v14c0 1.1.9 2 2 2h14v-2H4V6zm16-4H8c-1.1 0-2 .9-2 2v12c0 1.1.9 2 2 2h12c1.1 0 2-.9 2-2V4c0-1.1-.9-2-2-2zm-1 9H9V9h10v2zm-4 4H9v-2h6v2zm4-8H9V5h10v2z" /></symbol><symbol viewBox="0 0 24 24" id="link"><path d="M17.0156 6.98438C18.3906 6.98438 19.5625 7.48438 20.5312 8.48438C21.5 9.45312 21.9844 10.625 21.9844 12C21.9844 13.375 21.5 14.5625 20.5312 15.5625C19.5625 16.5312 18.3906 17.0156 17.0156 17.0156H12.9844V15.0938H17.0156C17.8594 15.0938 18.5781 14.7969 19.1719 14.2031C19.7969 13.5781 20.1094 12.8438 20.1094 12C20.1094 11.1562 19.7969 10.4375 19.1719 9.84375C18.5781 9.21875 17.8594 8.90625 17.0156 8.90625H12.9844V6.98438H17.0156ZM8.01562 12.9844V11.0156H15.9844V12.9844H8.01562ZM4.78125 9.84375C4.1875 10.4375 3.89062 11.1562 3.89062 12C3.89062 12.8438 4.1875 13.5781 4.78125 14.2031C5.40625 14.7969 6.14062 15.0938 6.98438 15.0938H11.0156V17.0156H6.98438C5.60938 17.0156 4.4375 16.5312 3.46875 15.5625C2.5 14.5625 2.01562 13.375 2.01562 12C2.01562 10.625 2.5 9.45312 3.46875 8.48438C4.4375 7.48438 5.60938 6.98438 6.98438 6.98438H11.0156V8.90625H6.98438C6.14062 8.90625 5.40625 9.21875 4.78125 9.84375Z" /></symbol><symbol viewBox="0 0 24 24" id="link-off"><path d="M17 7H13V8.9H17C18.71 8.9 20.1 10.29 20.1 12C20.1 13.43 19.12 14.63 17.79 14.98L19.25 16.44C20.88 15.61 22 13.95 22 12C22 9.24 19.76 7 17 7ZM16 11H13.81L15.81 13H16V11ZM2 4.27L5.11 7.38C3.29 8.12 2 9.91 2 12C2 14.76 4.24 17 7 17H11V15.1H7C5.29 15.1 3.9 13.71 3.9 12C3.9 10.41 5.11 9.1 6.66 8.93L8.73 11H8V13H10.73L13 15.27V17H14.73L18.74 21L20 19.74L3.27 3L2 4.27Z" /></symbol><symbol viewBox="0 0 24 24" id="list-bullet"><path d="M6.98438 5.01562H21V6.98438H6.98438V5.01562ZM6.98438 12.9844V11.0156H21V12.9844H6.98438ZM6.98438 18.9844V17.0156H21V18.9844H6.98438ZM2.90625 16.9688C3.21875 16.6562 3.57812 16.5 3.98438 16.5C4.39062 16.5 4.73438 16.6562 5.01562 16.9688C5.32812 17.25 5.48438 17.5938 5.48438 18C5.48438 18.4062 5.32812 18.7656 5.01562 19.0781C4.73438 19.3594 4.39062 19.5 3.98438 19.5C3.57812 19.5 3.21875 19.3594 2.90625 19.0781C2.625 18.7656 2.48438 18.4062 2.48438 18C2.48438 17.5938 2.625 17.25 2.90625 16.9688ZM2.90625 4.92188C3.21875 4.64062 3.57812 4.5 3.98438 4.5C4.39062 4.5 4.73438 4.64062 5.01562 4.92188C5.32812 5.20312 5.48438 5.5625 5.48438 6C5.48438 6.4375 5.32812 6.79688 5.01562 7.07812C4.73438 7.35938 4.39062 7.5 3.98438 7.5C3.57812 7.5 3.21875 7.35938 2.90625 7.07812C2.625 6.79688 2.48438 6.4375 2.48438 6C2.48438 5.5625 2.625 5.20312 2.90625 4.92188ZM2.90625 10.9219C3.21875 10.6406 3.57812 10.5 3.98438 10.5C4.39062 10.5 4.73438 10.6406 5.01562 10.9219C5.32812 11.2031 5.48438 11.5625 5.48438 12C5.48438 12.4375 5.32812 12.7969 5.01562 13.0781C4.73438 13.3594 4.39062 13.5 3.98438 13.5C3.57812 13.5 3.21875 13.3594 2.90625 13.0781C2.625 12.7969 2.48438 12.4375 2.48438 12C2.48438 11.5625 2.625 11.2031 2.90625 10.9219Z" /></symbol><symbol viewBox="0 0 24 24" id="list-number"><path d="M6.98438 12.9844V11.0156H21V12.9844H6.98438ZM6.98438 18.9844V17.0156H21V18.9844H6.98438ZM6.98438 5.01562H21V6.98438H6.98438V5.01562ZM2.01562 11.0156V9.98438H5.01562V10.9219L3.1875 12.9844H5.01562V14.0156H2.01562V13.0781L3.79688 11.0156H2.01562ZM3 8.01562V5.01562H2.01562V3.98438H3.98438V8.01562H3ZM2.01562 17.0156V15.9844H5.01562V20.0156H2.01562V18.9844H3.98438V18.5156H3V17.4844H3.98438V17.0156H2.01562Z" /></symbol><symbol viewBox="0 0 512 512" id="list-ul-old"><path d="M48 48c26.5 0 48 21.5 48 48s-21.5 48-48 48-48-21.5-48-48 21.5-48 48-48zM48 208c26.5 0 48 21.5 48 48s-21.5 48-48 48-48-21.5-48-48 21.5-48 48-48zM48 368c26.5 0 48 21.5 48 48s-21.5 48-48 48-48-21.5-48-48 21.5-48 48-48zM496 384c8.8 0 16 7.2 16 16v32c0 8.8-7.2 16-16 16h-320c-8.8 0-16-7.2-16-16v-32c0-8.8 7.2-16 16-16h320zM496 64c8.8 0 16 7.2 16 16v32c0 8.8-7.2 16-16 16h-320c-8.8 0-16-7.2-16-16v-32c0-8.8 7.2-16 16-16h320zM496 224c8.8 0 16 7.2 16 16v32c0 8.8-7.2 16-16 16h-320c-8.8 0-16-7.2-16-16v-32c0-8.8 7.2-16 16-16h320z" /></symbol><symbol viewBox="0 0 24 24" id="location"><path d="M15.98 9.98V8.02h-3v-3h-1.96v3h-3v1.96h3v3h1.96v-3h3zm-8.95-5.9A6.77 6.77 0 0112 2.02c1.94 0 3.58.68 4.92 2.06A6.62 6.62 0 0118.98 9c0 .97-.25 2.08-.75 3.33a19.36 19.36 0 01-1.73 3.51 66.44 66.44 0 01-3.75 5.35l-.75.8-.75-.85a47.63 47.63 0 01-3.84-5.3 25.62 25.62 0 01-1.64-3.46A9.48 9.48 0 015.02 9a6.7 6.7 0 012.01-4.92z" /></symbol><symbol viewBox="0 0 24 24" id="lock"><path d="M18 8h-1V6c0-2.76-2.24-5-5-5S7 3.24 7 6v2H6c-1.1 0-2 .9-2 2v10c0 1.1.9 2 2 2h12c1.1 0 2-.9 2-2V10c0-1.1-.9-2-2-2zm-6 9c-1.1 0-2-.9-2-2s.9-2 2-2 2 .9 2 2-.9 2-2 2zm3.1-9H8.9V6c0-1.71 1.39-3.1 3.1-3.1 1.71 0 3.1 1.39 3.1 3.1v2z" /></symbol><symbol viewBox="0 0 24 24" id="lock-open"><path d="M12 17c1.1 0 2-.9 2-2s-.9-2-2-2-2 .9-2 2 .9 2 2 2zm6-9h-1V6c0-2.76-2.24-5-5-5S7 3.24 7 6h1.9c0-1.71 1.39-3.1 3.1-3.1 1.71 0 3.1 1.39 3.1 3.1v2H6c-1.1 0-2 .9-2 2v10c0 1.1.9 2 2 2h12c1.1 0 2-.9 2-2V10c0-1.1-.9-2-2-2zm0 12H6V10h12v10z" /></symbol><symbol viewBox="0 0 24 24" id="lock-square"><path d="M18.98 18.98V5.02H5.02v13.96h13.96zm0-15.98c.54 0 1 .2 1.41.6.4.42.61.88.61 1.42v13.96c0 .54-.2 1-.6 1.41-.42.4-.88.61-1.42.61H5.02c-.54 0-1-.2-1.41-.6-.4-.42-.61-.88-.61-1.42V5.02c0-.54.2-1 .6-1.41.42-.4.88-.61 1.42-.61h13.96z" /><path fill-rule="evenodd" d="M14.12 10.67c.24 0 .44.1.6.29a.8.8 0 01.28.62v3.54a.8.8 0 01-.28.63.8.8 0 01-.6.25H9.88a.93.93 0 01-.64-.25.87.87 0 01-.24-.63v-3.54c0-.25.08-.46.24-.62.19-.2.4-.3.64-.3v-.41c0-.61.2-1.14.6-1.58.43-.45.93-.67 1.52-.67s1.08.22 1.48.67c.43.44.64.97.64 1.58v.42zm-.68-.42v.42h-2.88v-.42c0-.42.13-.78.4-1.08.3-.3.64-.46 1.04-.46s.73.15 1 .46c.3.3.44.66.44 1.08z" clip-rule="evenodd" /></symbol><symbol viewBox="0 0 24 24" id="loop"><path d="M12 4V1L8 5l4 4V6c3.31 0 6 2.69 6 6 0 1.01-.25 1.97-.7 2.8l1.46 1.46C19.54 15.03 20 13.57 20 12c0-4.42-3.58-8-8-8zm0 14c-3.31 0-6-2.69-6-6 0-1.01.25-1.97.7-2.8L5.24 7.74C4.46 8.97 4 10.43 4 12c0 4.42 3.58 8 8 8v3l4-4-4-4v3z" /><path d="M0 0h24v24H0z" fill="none" /></symbol><symbol fill="none" viewBox="0 0 180 32" id="marieclaire"><path fill="#000" d="M129.95 20.9l1.27 6.17c-3.27 3.77-8.66-2.85-1.27-6.16zm9.63 7.84l-.71-.1c-.6-.06-.77-1.34-.77-1.34l-1.28-7.6-.3-1.48c-.31-1.58-.64-3.22-1.24-4.72-1.96-4.56-7.6-5.31-11.76-4.08-.67.2-1.3.54-1.3.54v2.83c1.7-.74 3.38-.79 4.72-.14 1.76.85 2.25 3 2.34 3.9l.16 1c-2.03.31-4.55.81-6.4 2.12a6.86 6.86 0 00-2.93 6.3c.08 2.62 2.1 4.72 4.06 5.44 2.6.92 6.17.77 8.3-1.67l.26-.29.6.59c1.55 1.62 3.24 1.57 5.21 1.51l1.04-.02v-2.79zm-50.6-1.36s-2.17 1.6-5.51 1.13c-3.06-.43-4-5.22-4-5.22l11.8-3.8s-.23-5.16-3.08-7.96A9.34 9.34 0 0078 9.71c-2.16.84-4.16 3.09-5.1 5.73-1.8 5.03-.73 10.65 2.7 14 3.15 3.02 8.06 2.96 11.6 1.9l1.79-.77v-3.2zm-9.67-7.3c-.2-2.16.08-4.48.6-5.54.52-1.08 1.12-1.5 1.85-1.58 3.13-.38 3.48 5.35 3.48 5.35L79.3 20.1v-.01zm97.82 7.3s-2.17 1.6-5.5 1.13c-3.06-.43-4.01-5.22-4.01-5.22l11.8-3.8s-.23-5.16-3.07-7.96a9.34 9.34 0 00-10.2-1.82c-2.16.84-4.16 3.09-5.09 5.73-1.81 5.03-.73 10.65 2.69 14 3.15 3.02 8.06 2.96 11.6 1.9l1.79-.77v-3.2zm-9.67-7.3c-.19-2.16.08-4.48.6-5.54.53-1.08 1.12-1.5 1.85-1.58 3.13-.38 3.48 5.35 3.48 5.35l-5.93 1.78v-.01zm-127.2.85l1.27 6.16c-3.27 3.78-8.66-2.85-1.27-6.16zm9.63 7.84l-.71-.1c-.6-.07-.77-1.34-.77-1.34l-1.28-7.6-.3-1.49a26.48 26.48 0 00-1.24-4.72c-1.96-4.56-7.6-5.3-11.76-4.07-.67.2-1.3.54-1.3.54v2.83c1.7-.75 3.38-.79 4.72-.15 1.76.85 2.25 3.01 2.35 3.9l.15 1.01c-2.03.3-4.55.8-6.4 2.12a6.86 6.86 0 00-2.93 6.3c.08 2.62 2.1 4.71 4.06 5.44 2.6.92 6.17.77 8.3-1.67 0-.02.26-.3.26-.3l.6.6c1.55 1.62 3.24 1.57 5.21 1.5l1.04-.01v-2.79zm98.53-16.45v19.22h6.86v-12.3l.03-.46c.06-1.02.11-2.07.59-2.95 1.02-1.98 3.4-1.94 5.06-1.72l1.2-5.17s-.75-.32-1.86-.32c-3.07 0-4.74 3.56-4.76 3.6l-.29.68V8.6l-6.83 3.72zM71.15 8.64l-6.95 3.72v19.17h6.96l-.01-22.89zm.18-6.08A4.2 4.2 0 0069.81.6a4.25 4.25 0 00-5.08.6 4.16 4.16 0 00-1.12 3.7 3.86 3.86 0 002.14 2.73c1.47.6 3.67.47 5-1.18.76-.91 1-2.55.58-3.9zm76 6.06l-6.94 3.72V31.5h6.96l-.02-22.88zm.19-6.09A4.2 4.2 0 00146 .57a4.25 4.25 0 00-5.08.61 4.16 4.16 0 00-1.12 3.69 3.86 3.86 0 002.13 2.74c1.48.59 3.67.47 5.01-1.19.76-.9 1-2.54.58-3.9v.01zm-40.42 25.2c-1.82-.94-3.35-2.34-3.54-6.33-.23-4.66.7-7.93 3.18-8.88 1.89-.72 4.48.87 4.48.87l.02-3.77s-3.55-1.72-7.53-.44c-3.6 1.15-5.92 3.95-6.74 8.54a15.1 15.1 0 001.53 9.93c1.9 3.14 5.52 4.78 9.64 4.22 1.12-.16 3.45-.88 3.45-.88l-.03-3.47s-2.58 1.2-4.46.22zm5.31 3.78h6.84V1.78l-6.84 3.66V31.5zM50.69 12.3v19.23h6.86v-12.3l.03-.46c.06-1.02.11-2.07.59-2.95 1.02-1.98 3.4-1.94 5.06-1.72l1.2-5.17s-.75-.32-1.86-.32c-3.07 0-4.74 3.56-4.76 3.6l-.29.68V8.6l-6.83 3.72zM0 12.29v19.26h6.73V17.12c0-1.12 1.13-2.11 2.24-2.08 1.05.04 2.1 1.03 2.1 2.08v14.4h7.03l-.01-14.4c0-1.14 1.21-2.13 2.36-2.08 1.05.05 2.05 1.04 2.05 2.08v14.4h7.05V14.84c0-.7 0-1.69-.2-2.48a4.18 4.18 0 00-2.94-3 6.8 6.8 0 00-7.8 3.27l-.15.26-.11-.28c-.84-2.1-2.16-3.25-3.94-3.44-2.96-.46-5.24.66-7.41 3.65l-.27.37V8.85L0 12.28z" /></symbol><symbol fill="none" viewBox="0 0 30 32" id="marieclaire_small"><path fill="#000" d="M0 12.28v19.26h6.73V17.12c0-1.12 1.13-2.11 2.24-2.08 1.05.04 2.1 1.03 2.1 2.08v14.4h7.03l-.01-14.4c0-1.14 1.21-2.13 2.36-2.08 1.05.05 2.05 1.04 2.05 2.08v14.4h7.05V14.84c0-.7 0-1.69-.2-2.48a4.18 4.18 0 00-2.94-3 6.8 6.8 0 00-7.8 3.27l-.15.26-.11-.28c-.84-2.1-2.16-3.25-3.94-3.44-2.96-.46-5.24.66-7.41 3.65l-.27.37V8.85L0 12.28z" /></symbol><symbol fill="none" viewBox="0 0 172 32" id="maxim"><path fill="#BA0009" d="M59.26.08c-.15.07-.41.41-.59.76-.16.34-2.68 6.53-5.6 13.74-2.9 7.21-5.48 13.48-5.7 13.94a7.41 7.41 0 01-.79 1.28 3.72 3.72 0 01-2.16 1.1c-1.17.15-1.38.3-1.04.82l.18.28h4.83c3.1 0 4.9-.05 5.04-.11.24-.14.3-.63.08-.78-.08-.04-.6-.11-1.17-.16-.93-.05-1.04-.08-1.28-.38-.35-.39-.36-.88-.06-1.96.33-1.19 2.62-7.1 2.79-7.21.18-.12 9.16-.12 9.35 0 .13.1 3.36 8.43 3.36 8.7 0 .08-.1.26-.2.4-.2.22-.35.27-1.82.53-.28.05-.41.3-.32.57.14.34.9.4 6.12.4 4.54 0 5.26-.02 5.49-.18.13-.1.25-.25.25-.34 0-.25-.35-.51-.68-.51-.54 0-1.46-.34-1.91-.7a5.9 5.9 0 01-.89-.95c-.96-1.28-1.49-2.5-7.94-18.48C60.4.41 60.3.22 59.78.02a.75.75 0 00-.52.06zm1.2 13.86L62.33 19h-3.82c-2.1 0-3.83-.05-3.83-.1s.68-1.87 1.5-4.05c2.15-5.7 2.31-6.1 2.37-6.04.02.02.9 2.32 1.91 5.12zM8.02.3c-.12.16-.25.46-.3.67L5.6 14.87A847.37 847.37 0 013.33 29.1c-.33 1.34-.92 1.87-2.1 1.87-.64 0-1.15.17-1.23.42-.02.07.06.24.19.37.24.24.34.24 5.01.24 3.06 0 4.84-.05 4.99-.11.23-.13.3-.63.1-.75a7.7 7.7 0 00-1.13-.17c-2-.21-2.39-.58-2.27-2.07.11-1.3 2.19-17.02 2.26-17.02.03 0 .88 1.75 1.88 3.88 2.28 4.82 4.18 8.69 6.11 12.33 2.1 3.98 2.23 4.15 2.86 3.74.3-.2 1.73-3.05 7.61-15.2 2.57-5.3 2.58-5.32 2.66-4.83.05.26.63 4.44 1.3 9.28.9 6.46 1.2 8.9 1.12 9.2-.09.42-.11.42-1.72.75-.3.06-.47.54-.26.8.13.15.9.17 5.44.17 5.62 0 5.82-.02 5.9-.55.04-.29-.33-.48-.9-.48-.56 0-1.83-.46-2.23-.82-.42-.37-.69-.92-.93-1.99-.09-.38-1.04-6.62-2.12-13.87A777.3 777.3 0 0033.8.75c-.17-.5-.4-.72-.8-.72-.23 0-.4.1-.57.32-.2.27-1.83 3.65-9.83 20.24-.92 1.91-1.69 3.46-1.7 3.45 0-.02-2.57-5.23-5.66-11.59C12.13 6.1 9.44.71 9.27.5c-.42-.52-.92-.6-1.25-.18zM138.15.16c-.1.06-.26.25-.35.44-.1.17-1.13 6.58-2.3 14.22a751.12 751.12 0 01-2.3 14.48c-.2.71-.53 1.25-.9 1.5-.16.1-.65.21-1.13.25-.95.08-1.24.18-1.24.47 0 .47.08.48 5.1.48 4.18 0 4.87-.02 5.08-.18.59-.4.24-.67-1-.79-1.13-.09-1.7-.25-2.02-.58-.25-.24-.28-.38-.28-1.18 0-.74 2.1-17.23 2.2-17.33.03-.03.86 1.7 1.87 3.82 2.37 5.02 4 8.32 6.01 12.14 2.04 3.9 2.14 4.04 2.65 4.04.34 0 .44-.07.7-.46.17-.25 2.44-4.85 5.05-10.2 2.6-5.37 4.76-9.71 4.8-9.67.1.12 2.54 17.9 2.53 18.46 0 .64-.23.8-1.28.95-.63.08-1.02.43-.82.73.1.18.58.2 5.5.22 5.44.03 5.84 0 5.97-.38.08-.25-.32-.51-.73-.51-.49 0-1.54-.29-2.13-.59-.5-.26-.91-.92-1.17-1.88-.1-.38-1.09-6.76-2.19-14.2A392.88 392.88 0 00163.58.6c-.09-.19-.3-.4-.46-.46-.23-.12-.33-.1-.58.1-.23.16-1.8 3.29-6 12.03a768.6 768.6 0 01-5.74 11.8c-.03 0-2.61-5.24-5.73-11.63-3.6-7.38-5.8-11.76-6.03-12.02-.38-.4-.55-.44-.89-.25zm-61.57.9c-.23.18-.25.25-.14.5.1.23.25.28 1.13.4.58.1 1.3.3 1.73.49 1.39.63 1.75 1.08 6.43 8.12l4.3 6.46-.26.39a345.12 345.12 0 01-8.89 12.12 4.84 4.84 0 01-2.51 1.41c-.8.15-1.07.49-.68.87.15.16.74.18 4.67.18 3.89 0 4.54-.02 4.76-.18.56-.4.2-.75-.87-.87-1.2-.12-1.41-.57-.83-1.77.36-.71 6.14-9.52 6.25-9.52.2 0 6.45 9.75 6.63 10.36.18.54-.05.72-1.05.83-.45.05-.9.15-.99.23-.25.2-.2.53.08.74.23.16 1.01.18 6.2.18 3.88 0 6.03-.05 6.18-.11.28-.15.29-.65.02-.79a4.04 4.04 0 00-.96-.17 5.04 5.04 0 01-2.56-.95c-.8-.62-1.14-1.07-6.94-9.63-2.1-3.11-3.53-5.32-3.49-5.4.33-.53 8.1-11.3 8.5-11.79.62-.74 1.14-1 2.23-1.18 1.14-.17 1.38-.28 1.33-.59-.07-.53-.3-.55-5.17-.53-4.37.04-4.58.05-4.74.26a.87.87 0 00-.16.3c0 .26.4.43 1.15.49.45.03.95.15 1.1.25.41.27.36.9-.12 1.83-.51.99-5.58 8.49-5.79 8.55-.1.04-4-5.87-5.32-8.06-.89-1.46-1.1-1.96-.89-2.2.18-.21.84-.4 1.38-.4.47 0 .69-.18.69-.53 0-.48-.4-.51-6.42-.51-5.43 0-5.73.01-5.98.22zm35.7-.12c-.43.12-.57.42-.33.68.15.17.43.24 1.13.29 1.66.13 2.1.54 2.28 2.16.15 1.29.15 21.55 0 23.6-.2 2.73-.4 3.1-1.8 3.24-1.35.11-1.5.16-1.6.42-.05.19 0 .31.19.46.24.2.64.21 6.53.21 5.48 0 6.3-.02 6.52-.18.33-.23.32-.6 0-.73a9.55 9.55 0 00-1.4-.16c-1.36-.1-1.84-.22-2.21-.56-.4-.37-.5-.87-.6-3.08a629 629 0 010-22.75c.14-2.1.46-2.48 2.22-2.63.91-.07 1.26-.24 1.19-.59-.1-.46-.4-.48-6.23-.47-3.09.01-5.75.05-5.9.1z" /></symbol><symbol fill="none" viewBox="0 0 43 32" id="maxim_small"><path fill="#BA0009" d="M8.02.31c-.12.16-.25.46-.3.67L5.6 14.87A847.37 847.37 0 013.33 29.1c-.33 1.34-.92 1.87-2.1 1.87-.64 0-1.15.17-1.23.42-.02.07.06.24.19.37.24.24.34.24 5.01.24 3.06 0 4.84-.05 4.99-.11.23-.13.3-.63.1-.75a7.7 7.7 0 00-1.13-.17c-2-.21-2.39-.58-2.27-2.07.11-1.3 2.19-17.02 2.26-17.02.03 0 .88 1.75 1.88 3.88a310.3 310.3 0 006.11 12.33c2.1 3.98 2.23 4.15 2.86 3.74.3-.2 1.73-3.05 7.61-15.2 2.57-5.3 2.58-5.32 2.66-4.83.05.26.63 4.44 1.3 9.28.9 6.46 1.2 8.9 1.12 9.2-.09.42-.11.42-1.72.75-.3.06-.47.54-.26.8.13.15.9.17 5.44.17 5.62 0 5.82-.02 5.9-.55.04-.29-.33-.48-.9-.48-.56 0-1.83-.46-2.23-.82-.42-.37-.69-.92-.93-1.99-.09-.38-1.04-6.62-2.12-13.87C34.8 7.05 33.87.95 33.8.75c-.17-.5-.4-.72-.8-.72-.23 0-.4.1-.57.32-.2.27-1.83 3.65-9.83 20.24a117 117 0 01-1.7 3.45c0-.02-2.57-5.23-5.66-11.59A450.4 450.4 0 009.27.5c-.42-.52-.92-.6-1.25-.18z" /></symbol><symbol viewBox="0 0 24 24" id="more"><path d="M10.5938 16.5938C11 16.1875 11.4688 15.9844 12 15.9844C12.5312 15.9844 13 16.1875 13.4062 16.5938C13.8125 17 14.0156 17.4688 14.0156 18C14.0156 18.5312 13.8125 19 13.4062 19.4062C13 19.8125 12.5312 20.0156 12 20.0156C11.4688 20.0156 11 19.8125 10.5938 19.4062C10.1875 19 9.98438 18.5312 9.98438 18C9.98438 17.4688 10.1875 17 10.5938 16.5938ZM10.5938 10.5938C11 10.1875 11.4688 9.98438 12 9.98438C12.5312 9.98438 13 10.1875 13.4062 10.5938C13.8125 11 14.0156 11.4688 14.0156 12C14.0156 12.5312 13.8125 13 13.4062 13.4062C13 13.8125 12.5312 14.0156 12 14.0156C11.4688 14.0156 11 13.8125 10.5938 13.4062C10.1875 13 9.98438 12.5312 9.98438 12C9.98438 11.4688 10.1875 11 10.5938 10.5938ZM13.4062 7.40625C13 7.8125 12.5312 8.01562 12 8.01562C11.4688 8.01562 11 7.8125 10.5938 7.40625C10.1875 7 9.98438 6.53125 9.98438 6C9.98438 5.46875 10.1875 5 10.5938 4.59375C11 4.1875 11.4688 3.98438 12 3.98438C12.5312 3.98438 13 4.1875 13.4062 4.59375C13.8125 5 14.0156 5.46875 14.0156 6C14.0156 6.53125 13.8125 7 13.4062 7.40625Z" /></symbol><symbol fill="none" viewBox="0 0 118 24" id="n1"><g clip-path="url(#n1_clip0)"><path fill="#F2496D" d="M20.17 12.78L9.63 0H0v24h9.39V11.27L19.93 24h9.63V0h-9.4v12.78z" /><path fill="#5840CC" d="M29.49 0l-3.8 7.78 3.86.87V24H39V0h-9.51z" /></g><path fill="#F2496D" d="M45 0h73v24H45z" /><path fill="#fff" d="M59.09 6.1h1.36v5.54l.73-.24 3.45-5.3h1.56l-3.43 5.17-.68.54.85.7L66.72 18h-1.73l-3.76-5.5h-.78V18h-1.36v-5.71l-.72.24L54.62 18h-1.64l3.76-5.32.82-.65-.79-.6-3.55-5.33h1.65l3.45 5.34h.77V6.1zM70.5 15l.48 1.64h.09l.37-1.65 1.65-5.49h1.38l-2.52 7.63-.58 1.62c-.18.52-.38.98-.61 1.4-.23.4-.48.72-.77.96-.28.25-.6.38-.98.38-.41 0-.74-.06-1-.17l.23-1.18c.15.06.3.09.43.09.32 0 .62-.17.92-.51.3-.33.53-.9.73-1.72L66.9 9.5h1.56L70.5 15zm5.42-5.5h.94l.25 1.02h.07c.26-.4.6-.7 1-.9.42-.22.9-.32 1.43-.32 1.14 0 1.98.33 2.54 1 .55.67.83 1.76.83 3.28 0 .71-.1 1.36-.29 1.94a4.12 4.12 0 01-.78 1.44c-.34.4-.76.7-1.24.92a4.7 4.7 0 01-2.6.24c-.24-.05-.5-.13-.79-.26v3.54h-1.36V9.5zm3.44.99c-.58 0-1.04.15-1.38.46-.33.29-.56.74-.7 1.36v4.21c.2.16.44.28.7.38.26.07.6.11 1.04.11.78 0 1.4-.29 1.85-.86.47-.6.7-1.45.7-2.59 0-.46-.04-.88-.12-1.26a2.6 2.6 0 00-.4-.96c-.16-.28-.39-.49-.67-.63a2.12 2.12 0 00-1.02-.22zm10.96 3.75h-3.84V18h-1.36V9.5h1.36v3.55h3.84V9.5h1.36V18h-1.36v-3.76zm3.85-4.11a4.9 4.9 0 011.5-.58 8.52 8.52 0 011.8-.19c.58 0 1.05.08 1.4.24.37.16.64.37.82.63.2.25.32.53.38.83.06.31.1.62.1.92 0 .68-.02 1.34-.05 2-.04.64-.06 1.25-.06 1.83 0 .42.02.81.06 1.19.03.37.1.72.18 1.03h-1l-.36-1.19h-.08a2.9 2.9 0 01-.94.89 3.82 3.82 0 01-1.71.4c-.37 0-.7-.05-1.02-.16-.31-.12-.58-.28-.8-.48-.23-.22-.41-.47-.55-.76-.12-.3-.18-.63-.18-1 0-.5.1-.92.3-1.25.2-.34.49-.6.85-.8.38-.2.82-.34 1.33-.42.52-.1 1.1-.14 1.72-.14h.45c.16 0 .32.01.48.04.03-.35.05-.65.05-.92 0-.63-.12-1.06-.37-1.31s-.7-.38-1.36-.38a5.37 5.37 0 00-1.97.36c-.2.07-.39.15-.55.24l-.42-1.02zm2.41 6.82c.32 0 .6-.04.85-.12.25-.1.46-.2.65-.33.18-.13.32-.28.44-.44.12-.16.21-.31.27-.46v-1.4a6.94 6.94 0 00-.5-.02 6.7 6.7 0 00-2.39.27c-.25.1-.45.25-.61.44-.15.18-.22.41-.22.7 0 .4.14.72.42.98.29.25.65.38 1.09.38zm10.73-6.26h-2.47l-.1 1.55c-.03.54-.08 1.1-.15 1.65-.07.54-.16 1.07-.27 1.58-.12.5-.26.94-.44 1.32-.17.39-.4.7-.65.94a1.3 1.3 0 01-.9.34 4 4 0 01-.56-.04c-.16-.02-.3-.06-.43-.12l.2-1.13c.14.04.29.06.45.06.22 0 .43-.1.61-.29.18-.19.34-.55.48-1.08a16 16 0 00.34-2.25c.09-.95.15-2.19.18-3.72h5.07V18h-1.36v-7.31z" /><defs></defs></symbol><clipPath id="n1_clip0"><path fill="#fff" d="M0 0h39v24H0z" /></clipPath><symbol fill="none" viewBox="0 0 39 24" id="n1_small"><g clip-path="url(#n1_small_clip0)"><path fill="#F2496D" d="M20.17 12.78L9.63 0H0v24h9.39V11.27L19.93 24h9.63V0h-9.4v12.78z" /><path fill="#5840CC" d="M29.49 0l-3.8 7.78 3.86.87V24H39V0h-9.51z" /></g><defs></defs></symbol><clipPath id="n1_small_clip0"><path fill="#fff" d="M0 0h39v24H0z" /></clipPath><symbol viewBox="0 0 16 16" id="notification-error"><path d="M8 .25C1 .25.25 1 .25 8S1 15.75 8 15.75 15.75 15 15.75 8 15 .25 8 .25zm3.8 9.784a.375.375 0 0 1 0 .532L10.562 11.8a.375.375 0 0 1-.53 0L8 9.75 5.966 11.8a.375.375 0 0 1-.532 0L4.2 10.562a.375.375 0 0 1 0-.53L6.25 8 4.2 5.966a.375.375 0 0 1 0-.532l1.237-1.237a.375.375 0 0 1 .532 0L8 6.25l2.034-2.05a.375.375 0 0 1 .532 0l1.237 1.237a.375.375 0 0 1 0 .532L9.75 8l2.05 2.034z" /></symbol><symbol fill="none" viewBox="0 0 157 32" id="parents"><path fill="#F13F35" d="M0 31.43V.77h11.02c1.54 0 2.91.16 4.1.49 1.2.32 2.2.8 3.01 1.42a6.1 6.1 0 011.82 2.38c.4.94.6 2.04.6 3.3 0 .95-.08 1.83-.23 2.63-.16.79-.4 1.51-.74 2.16-.34.63-.74 1.19-1.21 1.7a6.3 6.3 0 01-1.65 1.25c-.6.36-1.26.66-1.98.9-.71.25-1.49.44-2.31.58-.43.06-.87.13-1.31.18-.45.06-.91.1-1.38.12a28.99 28.99 0 01-3.06.13v13.42a21.14 21.14 0 00-6.68 0zm6.68-15.9a24.54 24.54 0 001.72-.07 6.14 6.14 0 001.24-.23 5.2 5.2 0 001.8-.82c.5-.37.9-.84 1.22-1.4.31-.53.55-1.12.7-1.77.16-.65.24-1.36.24-2.12 0-.87-.1-1.66-.28-2.38a5.4 5.4 0 00-2.22-3.12c-.5-.27-1.05-.4-1.63-.4H6.68v12.31zm14.24 6.57l-1.1 3.12-1.22 3.46-.8 2.65a13.7 13.7 0 00-4.23 0L26.33.4a11.27 11.27 0 003.4 0L42.2 31.43h-.03a28.03 28.03 0 00-7.66 0c-.67-2.12-1.27-3.96-1.8-5.52-.52-1.55-.98-2.82-1.39-3.8h-10.4zm9.4-2.75l-4-10.4-4.19 10.4h8.2zM43.57.77h9.53c1.77 0 3.26.08 4.47.24 1.21.15 2.14.38 2.79.67a7 7 0 012.9 2.61c.64 1.08.96 2.34.96 3.8 0 1.04-.15 2.01-.45 2.9-.3.88-.77 1.67-1.4 2.36a8.88 8.88 0 01-2.21 1.71c-.85.47-1.82.82-2.9 1.04l2.26 3.8 2.95 4.62 2.7 4.13 1.74 2.78a29.13 29.13 0 00-7.83 0h-.27l-5.3-9.4-1.48-2.5-1.44-2.42h-.3v14.32a21.68 21.68 0 00-6.72 0V.77zm6.71 14.4l1.11.06c1.97 0 3.45-.54 4.43-1.61.99-1.07 1.48-2.68 1.48-4.83a8.08 8.08 0 00-.06-1.08l-.07-.58a5.86 5.86 0 00-.1-.59 4.4 4.4 0 00-.6-1.71c-.3-.45-.68-.78-1.15-1a7.02 7.02 0 00-1.63-.46c-.61-.1-1.3-.15-2.06-.15h-1.35v11.94zm34.9-10.54c-1.55-.2-3.18-.35-4.9-.45a93.5 93.5 0 00-5.45-.15v9.25h4.67a36.86 36.86 0 005.47-.4 22.1 22.1 0 00-.03 4.5 68.3 68.3 0 00-1.4-.19c-.45-.06-.92-.1-1.39-.12-.44-.04-.9-.07-1.34-.08a52.4 52.4 0 00-1.3-.02h-4.68v11a119.5 119.5 0 005.51-.13 60.2 60.2 0 004.8-.47c-.06.65-.1 1.29-.11 1.91-.02.63.03 1.27.15 1.91H68.14V.77h17a11.33 11.33 0 00.03 3.86zM90.7.8l4.43 4.72 4.94 5.3 5.24 5.64.68.75.86.96 1.08 1.14c.26.3.43.5.5.6.34.36.63.7.89 1l.69.78V.8l.87.07.9.04c.3 0 .6-.02.9-.04l.92-.06v30.62c-.65-.09-1.28-.14-1.9-.15-.61-.01-1.23.03-1.86.12h-.07l-5.5-6.18-4.9-5.4a157.08 157.08 0 01-2.33-2.51 232.37 232.37 0 00-2.35-2.48l-4.87-5.1V31.3c-.6-.1-1.2-.14-1.78-.14-.58 0-1.17.04-1.78.1V.81c.74.08 1.48.12 2.22.11.74 0 1.48-.05 2.22-.11zm32.5 30.62V3.96a64.41 64.41 0 00-8.3.64 14.05 14.05 0 00.01-3.83h23a13.9 13.9 0 000 3.83c-1.79-.23-3.35-.39-4.68-.5-1.33-.1-2.44-.14-3.3-.14v27.47a21.68 21.68 0 00-6.72 0zm30.23-24.89a6.35 6.35 0 00-2.03-2.92 5.02 5.02 0 00-3.1-.97c-1.64 0-2.87.37-3.69 1.1-.81.74-1.22 1.84-1.22 3.3 0 .64.1 1.2.32 1.69.21.48.54.88.99 1.19.4.29 1.02.67 1.85 1.14.82.47 1.85 1.02 3.09 1.64 1.23.65 2.3 1.31 3.24 1.98.93.67 1.7 1.34 2.3 2.01.6.7 1.05 1.5 1.36 2.4.3.9.45 1.93.45 3.07a9.22 9.22 0 01-1.51 5.07 8.8 8.8 0 01-1.8 2.01 12.13 12.13 0 01-5.32 2.45 16.77 16.77 0 01-7.12-.17c-1.2-.31-2.32-.8-3.32-1.44a49.45 49.45 0 001.3-5.67h.84c.18.74.45 1.4.81 2.01a5.77 5.77 0 003.22 2.58 6.76 6.76 0 004.17.02c.63-.21 1.2-.52 1.71-.92.5-.4.87-.89 1.13-1.46.25-.57.38-1.22.38-1.96 0-.79-.12-1.46-.35-2.03a3.29 3.29 0 00-1.06-1.4c-.47-.35-1.11-.75-1.93-1.2-.82-.45-1.8-.95-2.97-1.51a21.69 21.69 0 01-3.1-1.75c-.86-.6-1.6-1.21-2.17-1.84a6.3 6.3 0 01-1.31-2.38 10.88 10.88 0 01.23-6.88c.2-.56.47-1.09.8-1.6.34-.5.74-.96 1.18-1.38.43-.43.91-.8 1.46-1.14a10.66 10.66 0 013.9-1.41 15.37 15.37 0 016.57.47c.64.22 1.2.46 1.67.7.47.25.85.52 1.15.8-.07.12-.14.29-.2.51l-.27.84a226.14 226.14 0 00-.98 3.05h-.67z" /></symbol><symbol fill="none" viewBox="0 0 22 32" id="parents_small"><path fill="#F13F35" d="M1 31.66V1h11.02c1.54 0 2.91.16 4.1.49 1.2.32 2.2.8 3.01 1.42a6.1 6.1 0 011.82 2.38c.4.94.6 2.04.6 3.3 0 .95-.08 1.83-.23 2.62-.16.8-.4 1.52-.74 2.17-.34.62-.74 1.19-1.21 1.7a6.3 6.3 0 01-1.65 1.25c-.6.36-1.26.66-1.98.9-.71.25-1.49.44-2.31.57l-1.31.19c-.45.06-.91.1-1.38.12a28.98 28.98 0 01-3.06.13v13.42a21.14 21.14 0 00-6.68 0zm6.68-15.9a24.54 24.54 0 001.72-.07 6.17 6.17 0 001.24-.23 5.2 5.2 0 001.8-.82c.5-.37.9-.84 1.22-1.4.31-.53.55-1.13.7-1.77.16-.65.24-1.36.24-2.12 0-.87-.1-1.66-.28-2.38a5.4 5.4 0 00-2.22-3.12c-.5-.27-1.05-.4-1.63-.4H7.68v12.3z" /></symbol><symbol viewBox="0 0 24 24" id="plus"><path d="M18.984 12.984h-6v6h-1.968v-6h-6v-1.968h6v-6h1.968v6h6v1.968z" /></symbol><symbol viewBox="0 0 48 48" id="poll"><path d="M13.969 13.969H42V18H13.969v-4.031zm0 20.062V30H42v4.031H13.969zm0-8.062V22.03H42v3.938H13.969zM6 18v-4.031h4.031V18H6zm0 16.031V30h4.031v4.031H6zm0-8.062V22.03h4.031v3.938H6z" /></symbol><symbol viewBox="0 0 24 24" id="profile"><path d="M6 15.98a6.9 6.9 0 006 3.24 6.9 6.9 0 006-3.24c-.03-.87-.73-1.6-2.1-2.2a9.84 9.84 0 00-3.9-.89c-1.22 0-2.52.3-3.9.9-1.37.55-2.07 1.29-2.1 2.2zm8.1-10.07c-.58-.6-1.29-.9-2.1-.9s-1.52.3-2.1.9C9.3 6.5 9 7.2 9 8c0 .82.3 1.52.9 2.12.58.59 1.29.89 2.1.89s1.52-.3 2.1-.9c.6-.59.9-1.3.9-2.1 0-.82-.3-1.52-.9-2.11zm-9.18-.94A9.66 9.66 0 0112 2.02c2.75 0 5.1.98 7.03 2.95A9.5 9.5 0 0121.98 12c0 2.75-.98 5.1-2.95 7.08a9.58 9.58 0 01-7.03 2.9c-2.75 0-5.1-.96-7.08-2.9A9.73 9.73 0 012.02 12c0-2.75.96-5.1 2.9-7.03z" /></symbol><symbol viewBox="0 0 48 48" id="quiz"><path d="M19.969 34.031l18-18-2.813-2.906L19.97 28.313l-7.125-7.125L10.03 24l9.938 10.031zM9.844 9.938C13.78 6 18.5 4.03 24 4.03S34.188 6 38.063 9.938C42 13.812 43.968 18.5 43.968 24S42 34.219 38.062 38.156C34.188 42.031 29.5 43.97 24 43.97S13.781 42.03 9.844 38.156C5.969 34.22 4.03 29.5 4.03 24S5.97 13.812 9.844 9.937z" /></symbol><symbol viewBox="0 0 24 24" id="quote"><path d="M14.0156 17.0156L15.9844 12.9844H12.9844V6.98438H18.9844V12.9844L17.0156 17.0156H14.0156ZM6 17.0156L8.01562 12.9844H5.01562V6.98438H11.0156V12.9844L9 17.0156H6Z" /></symbol><symbol viewBox="0 0 512 512" id="quote-old"><path d="M464 32c26.5 0 48 21.5 48 48v240c0 88.4-71.6 160-160 160h-8c-13.3 0-24-10.7-24-24v-48c0-13.3 10.7-24 24-24h8c35.3 0 64-28.7 64-64v-64h-80c-26.5 0-48-21.5-48-48v-128c0-26.5 21.5-48 48-48h128zM176 32c26.5 0 48 21.5 48 48v240c0 88.4-71.6 160-160 160h-8c-13.3 0-24-10.7-24-24v-48c0-13.3 10.7-24 24-24h8c35.3 0 64-28.7 64-64v-64h-80c-26.5 0-48-21.5-48-48v-128c0-26.5 21.5-48 48-48h128z" /></symbol><symbol viewBox="0 0 24 24" id="reload"><path d="M17.6719 6.32812L20.0156 3.98438V11.0156H12.9844L16.2188 7.78125C15.0312 6.59375 13.625 6 12 6C10.3438 6 8.92188 6.59375 7.73438 7.78125C6.57812 8.9375 6 10.3438 6 12C6 13.6562 6.57812 15.0781 7.73438 16.2656C8.92188 17.4219 10.3438 18 12 18C13.3125 18 14.4844 17.6406 15.5156 16.9219C16.5469 16.1719 17.2656 15.2031 17.6719 14.0156H19.7344C19.2969 15.7656 18.3594 17.2031 16.9219 18.3281C15.4844 19.4531 13.8438 20.0156 12 20.0156C9.8125 20.0156 7.9375 19.2344 6.375 17.6719C4.8125 16.1094 4.03125 14.2188 4.03125 12C4.03125 9.78125 4.8125 7.89062 6.375 6.32812C7.9375 4.76562 9.8125 3.98438 12 3.98438C14.2188 3.98438 16.1094 4.76562 17.6719 6.32812Z" /></symbol><symbol viewBox="0 0 24 24" id="remove-red-eye"><path d="M0 0h24v24H0z" fill="none" /><path d="M12 4.5C7 4.5 2.73 7.61 1 12c1.73 4.39 6 7.5 11 7.5s9.27-3.11 11-7.5c-1.73-4.39-6-7.5-11-7.5zM12 17c-2.76 0-5-2.24-5-5s2.24-5 5-5 5 2.24 5 5-2.24 5-5 5zm0-8c-1.66 0-3 1.34-3 3s1.34 3 3 3 3-1.34 3-3-1.34-3-3-3z" /></symbol><symbol viewBox="0 0 24 24" id="rocket"><path d="M21.733 2.744a.62.62 0 00-.476-.477c-1.258-.27-2.243-.27-3.223-.27-4.032 0-6.451 2.157-8.256 5H5.707c-.711 0-1.36.403-1.676 1.036L2.1 11.892a.936.936 0 00.84 1.355h3.715c-.23.5-.465.996-.703 1.473a.623.623 0 00.117.723l2.485 2.484c.191.191.48.238.723.117.476-.238.973-.469 1.473-.7v3.715a.94.94 0 001.356.84l3.856-1.93a1.871 1.871 0 001.035-1.675v-4.078C19.835 12.408 22 9.982 22 5.97c.004-.984.004-1.968-.265-3.226zm-4.106 5.504a1.876 1.876 0 110-3.752 1.876 1.876 0 010 3.752z" /></symbol><symbol viewBox="0 0 24 24" id="rotate"><path d="M12.984 4.078c1.97.25 3.625 1.125 4.97 2.625 1.374 1.5 2.062 3.266 2.062 5.297 0 2.031-.688 3.797-2.063 5.297-1.344 1.5-3 2.375-4.969 2.625v-2.016c1.438-.25 2.625-.922 3.563-2.015C17.516 14.766 18 13.469 18 12c0-1.469-.484-2.75-1.453-3.844-.938-1.125-2.125-1.812-3.563-2.062v3.89L8.438 5.531 12.983.984v3.094zm-5.906 14.25l1.453-1.453a5.685 5.685 0 002.485 1.031v2.016c-1.5-.188-2.813-.719-3.938-1.594zm-.984-5.344c.156.907.484 1.735.984 2.485l-1.406 1.406a8.072 8.072 0 01-1.594-3.89h2.016zm1.031-4.453c-.563.813-.906 1.64-1.031 2.485H4.078c.188-1.407.734-2.704 1.64-3.891l1.407 1.406z" /></symbol><symbol viewBox="0 0 24 24" id="save"><path d="M0 0h24v24H0z" fill="none" /><path d="M17 3H5c-1.11 0-2 .9-2 2v14c0 1.1.89 2 2 2h14c1.1 0 2-.9 2-2V7l-4-4zm-5 16c-1.66 0-3-1.34-3-3s1.34-3 3-3 3 1.34 3 3-1.34 3-3 3zm3-10H5V5h10v4z" /></symbol><symbol viewBox="0 0 24 24" id="search"><path d="M6.328 12.703c.875.875 1.938 1.313 3.188 1.313 1.25 0 2.312-.438 3.187-1.313s1.313-1.937 1.313-3.187c0-1.25-.438-2.313-1.313-3.188s-1.937-1.312-3.187-1.312c-1.25 0-2.313.437-3.188 1.312S5.016 8.266 5.016 9.516c0 1.25.437 2.312 1.312 3.187zm9.188 1.313l4.968 4.968-1.5 1.5-4.968-4.968v-.797l-.282-.281c-1.187 1.03-2.593 1.546-4.218 1.546-1.813 0-3.36-.625-4.641-1.875C3.625 12.86 3 11.33 3 9.516c0-1.813.625-3.344 1.875-4.594C6.156 3.64 7.703 3 9.515 3c1.813 0 3.344.64 4.594 1.922 1.25 1.25 1.875 2.781 1.875 4.594 0 1.625-.515 3.03-1.546 4.218l.28.282h.798z" /></symbol><symbol viewBox="0 0 24 24" id="settings"><path d="M9.51562 14.4844C10.2031 15.1719 11.0312 15.5156 12 15.5156C12.9688 15.5156 13.7969 15.1719 14.4844 14.4844C15.1719 13.7969 15.5156 12.9688 15.5156 12C15.5156 11.0312 15.1719 10.2031 14.4844 9.51562C13.7969 8.82812 12.9688 8.48438 12 8.48438C11.0312 8.48438 10.2031 8.82812 9.51562 9.51562C8.82812 10.2031 8.48438 11.0312 8.48438 12C8.48438 12.9688 8.82812 13.7969 9.51562 14.4844ZM19.4531 12.9844L21.5625 14.625C21.7812 14.7812 21.8125 15 21.6562 15.2812L19.6406 18.75C19.5156 18.9688 19.3125 19.0312 19.0312 18.9375L16.5469 17.9531C15.8906 18.4219 15.3281 18.75 14.8594 18.9375L14.4844 21.5625C14.4219 21.8438 14.2656 21.9844 14.0156 21.9844H9.98438C9.73438 21.9844 9.57812 21.8438 9.51562 21.5625L9.14062 18.9375C8.54688 18.6875 7.98438 18.3594 7.45312 17.9531L4.96875 18.9375C4.6875 19.0312 4.48438 18.9688 4.35938 18.75L2.34375 15.2812C2.1875 15 2.21875 14.7812 2.4375 14.625L4.54688 12.9844C4.51562 12.7656 4.5 12.4375 4.5 12C4.5 11.5625 4.51562 11.2344 4.54688 11.0156L2.4375 9.375C2.21875 9.21875 2.1875 9 2.34375 8.71875L4.35938 5.25C4.48438 5.03125 4.6875 4.96875 4.96875 5.0625L7.45312 6.04688C8.10938 5.57812 8.67188 5.25 9.14062 5.0625L9.51562 2.4375C9.57812 2.15625 9.73438 2.01562 9.98438 2.01562H14.0156C14.2656 2.01562 14.4219 2.15625 14.4844 2.4375L14.8594 5.0625C15.4531 5.3125 16.0156 5.64062 16.5469 6.04688L19.0312 5.0625C19.3125 4.96875 19.5156 5.03125 19.6406 5.25L21.6562 8.71875C21.8125 9 21.7812 9.21875 21.5625 9.375L19.4531 11.0156C19.4844 11.2344 19.5 11.5625 19.5 12C19.5 12.4375 19.4844 12.7656 19.4531 12.9844Z" /></symbol><symbol viewBox="0 0 48 48" id="slider"><path fill-rule="evenodd" d="M42 37.969c0 1.062-.406 2-1.219 2.812-.812.813-1.75 1.219-2.812 1.219H10.03c-1.062 0-2-.406-2.812-1.219C6.406 39.97 6 39.031 6 37.97V10.03c0-1.062.406-2 1.219-2.812C8.03 6.406 8.969 6 10.03 6H37.97c1.062 0 2 .406 2.812 1.219C41.594 8.03 42 8.969 42 10.03V37.97zM10 24l10-6v12l-10-6zm18-6l10 6-10 6V18z" clip-rule="evenodd" /></symbol><symbol viewBox="0 0 16 16" id="slider-old"><path fill-rule="evenodd" clip-rule="evenodd" d="M0 3a2 2 0 0 1 2-2h12a2 2 0 0 1 2 2v10a2 2 0 0 1-2 2H2a2 2 0 0 1-2-2V3zm1 5l5-3v6L1 8zm9-3l5 3-5 3V5z" /></symbol><symbol viewBox="0 0 8 41" id="slim-arrow"><path d="M3.646 40.354a.5.5 0 00.708 0l3.182-3.182a.5.5 0 00-.708-.707L4 39.293l-2.828-2.828a.5.5 0 10-.708.707l3.182 3.182zM3.5 0v40h1V0h-1z" /></symbol><symbol viewBox="0 0 24 24" id="spinner"><path d="M14.25 2.25a2.25 2.25 0 11-4.501-.001 2.25 2.25 0 014.501.001zM12 19.5a2.25 2.25 0 11-.001 4.501A2.25 2.25 0 0112 19.5zm9.75-9.75a2.25 2.25 0 11-.001 4.501 2.25 2.25 0 01.001-4.501zM4.5 12a2.25 2.25 0 11-4.501-.001A2.25 2.25 0 014.5 12zm.605 4.645a2.25 2.25 0 110 4.5 2.25 2.25 0 010-4.5zm13.79 0a2.25 2.25 0 11-.002 4.5 2.25 2.25 0 01.002-4.5zM5.105 2.855a2.25 2.25 0 110 4.502 2.25 2.25 0 010-4.502zm0 0" /></symbol><symbol viewBox="0 0 24 24" id="strikethrough"><path d="M9.375 13.125c0 1.688.969 2.531 2.906 2.531 1.531 0 2.297-.562 2.297-1.687 0-.5-.11-.86-.328-1.078-.188-.22-.547-.454-1.078-.704a.764.764 0 01-.188-.046l-.187-.094a.415.415 0 00-.188-.047H3V9.984h18V12h-3.89c0 .031.015.094.046.188l.14.14c.22.531.329 1.078.329 1.64 0 1.907-1.047 3.157-3.14 3.75a7.832 7.832 0 01-2.157.282c-.5 0-.984-.047-1.453-.14-1.125-.22-2-.563-2.625-1.032-1.219-.906-1.828-2.14-1.828-3.703h2.953zM14.578 7.5c0-1.406-.797-2.11-2.39-2.11-1.126 0-1.86.344-2.204 1.032a1.45 1.45 0 00-.14.656c0 .469.25.875.75 1.219.5.312.969.547 1.406.703H7.406c0-.031-.031-.063-.093-.094-.063-.062-.094-.11-.094-.14-.25-.407-.375-.97-.375-1.688 0-1.156.5-2.14 1.5-2.953C9.406 3.375 10.704 3 12.234 3c1.657 0 2.954.422 3.891 1.266.969.875 1.453 1.953 1.453 3.234h-3z" /></symbol><symbol viewBox="0 0 24 24" id="sub"><path d="M16 7.41L11.41 12 16 16.59 14.59 18 10 13.41 5.41 18 4 16.59 8.59 12 4 7.41 5.41 6 10 10.59 14.59 6 16 7.41zm5.85 13.62h-4.88v-1l.89-.8c.76-.65 1.32-1.19 1.7-1.63.37-.44.56-.85.57-1.24a.898.898 0 00-.27-.7c-.18-.16-.47-.28-.86-.28-.31 0-.58.06-.84.18l-.66.38-.45-1.17c.27-.21.59-.39.98-.53s.82-.24 1.29-.24c.78.04 1.38.25 1.78.66.4.41.62.93.62 1.57-.01.56-.19 1.08-.54 1.55-.34.47-.76.92-1.27 1.36l-.64.52v.02h2.58v1.35z" /></symbol><symbol viewBox="0 0 24 24" id="sup"><path d="M16 7.41L11.41 12 16 16.59 14.59 18 10 13.41 5.41 18 4 16.59 8.59 12 4 7.41 5.41 6 10 10.59 14.59 6 16 7.41zM21.85 9h-4.88V8l.89-.82c.76-.64 1.32-1.18 1.7-1.63.37-.44.56-.85.57-1.23a.884.884 0 00-.27-.7c-.18-.19-.47-.28-.86-.29-.31.01-.58.07-.84.17l-.66.39-.45-1.17c.27-.22.59-.39.98-.53S18.85 2 19.32 2c.78 0 1.38.2 1.78.61.4.39.62.93.62 1.57-.01.56-.19 1.08-.54 1.55-.34.48-.76.93-1.27 1.36l-.64.52v.02h2.58V9z" /></symbol><symbol viewBox="0 0 48 48" id="text"><path d="M10.031 7.969H37.97v6H27v24h-6v-24H10.031v-6z" /></symbol><symbol viewBox="0 0 12 12" id="text-old"><path d="M0 0h12v2H7v10H5V2H0V0z" /></symbol><symbol viewBox="0 0 24 24" id="trash"><path d="M18.984 3.984V6H5.016V3.984h3.468L9.516 3h4.968l1.032.984h3.468zM6 18.984v-12h12v12c0 .532-.203 1-.61 1.407-.406.406-.874.609-1.406.609H8.016c-.532 0-1-.203-1.407-.61-.406-.406-.609-.874-.609-1.406z" /></symbol><symbol viewBox="0 0 24 24" id="trending-up"><path d="M16 6l2.29 2.29-4.88 4.88-4-4L2 16.59 3.41 18l6-6 4 4 6.3-6.29L22 12V6z" /><path d="M0 0h24v24H0z" fill="none" /></symbol><symbol viewBox="0 0 24 24" id="underlined"><path d="M5.01562 18.9844H18.9844V21H5.01562V18.9844ZM16.2188 15.2812C15.0625 16.4375 13.6562 17.0156 12 17.0156C10.3438 17.0156 8.92188 16.4375 7.73438 15.2812C6.57812 14.0938 6 12.6719 6 11.0156V3H8.48438V11.0156C8.48438 11.9844 8.82812 12.8125 9.51562 13.5C10.2031 14.1562 11.0312 14.4844 12 14.4844C12.9688 14.4844 13.7969 14.1562 14.4844 13.5C15.1719 12.8125 15.5156 11.9844 15.5156 11.0156V3H18V11.0156C18 12.6719 17.4062 14.0938 16.2188 15.2812Z" /></symbol><symbol viewBox="0 0 448 512" id="user-graduate-old"><path d="M319.4 320.6c71.5 3.1 128.6 61.6 128.6 133.8v9.6c0 26.5-21.5 48-48 48h-352c-26.5 0-48-21.5-48-48v-9.6c0-72.2 57.1-130.7 128.6-133.8l95.4 95.4zM13.6 79.8c-18.1-4.4-18.1-27.2 0-31.6l190.6-45.9c13-3.1 26.7-3.1 39.7 0l190.4 46c18.2 4.4 18.2 27.1 0 31.5l-96.3 23.2c8.7 17.2 14 36.4 14 57 0 70.7-57.3 128-128 128s-128-57.3-128-128c0-20.6 5.4-39.8 14-57l-66-15.9v52.6c7 4.2 12 11.5 12 20.3 0 8.4-4.6 15.4-11.1 19.7l15.6 62.3c1.7 6.9-2.1 14-7.6 14h-41.8c-5.5 0-9.3-7.1-7.6-14l15.6-62.3c-6.5-4.3-11.1-11.3-11.1-19.7 0-8.8 5-16.1 12-20.3v-58.4z" /></symbol><symbol viewBox="0 0 24 24" id="video"><path d="M18.984 18.984V5.016H5.016v13.968h13.968zm0-15.984c.532 0 1 .203 1.407.61.406.406.609.874.609 1.406v13.968c0 .532-.203 1-.61 1.407-.406.406-.874.609-1.406.609H5.016c-.532 0-1-.203-1.407-.61-.406-.406-.609-.874-.609-1.406V5.016c0-.532.203-1 .61-1.407C4.015 3.203 4.483 3 5.015 3h13.968zm-9 5.016L15 12l-5.016 3.984V8.016z" /></symbol><symbol viewBox="0 0 24 24" id="view-list"><path d="M4 14h4v-4H4v4zm0 5h4v-4H4v4zM4 9h4V5H4v4zm5 5h12v-4H9v4zm0 5h12v-4H9v4zM9 5v4h12V5H9z" /><path d="M0 0h24v24H0z" fill="none" /></symbol><symbol viewBox="0 0 24 24" id="view-quilt"><path d="M10 18h5v-6h-5v6zm-6 0h5V5H4v13zm12 0h5v-6h-5v6zM10 5v6h11V5H10z" /><path d="M0 0h24v24H0z" fill="none" /></symbol><symbol viewBox="0 0 24 24" id="warning"><path d="M12.984 14.016V9.984h-1.968v4.032h1.968zm0 3.984v-2.016h-1.968V18h1.968zm-12 3L12 2.016 23.016 21H.984z" /></symbol><symbol fill="none" viewBox="0 0 95 32" id="wday"><path fill="#F42F3A" d="M34.54 19.72a3.06 3.06 0 01-2.7 1.37c-1.94 0-3-1.37-3-3.73 0-2.54 1.37-3.6 3.07-3.6 1.1 0 2.08.7 2.63 1.44v4.52zm0-8.65a5.4 5.4 0 00-3.68-1.13c-3.75 0-7.05 3.39-7.05 7.49 0 4.23 2.65 7.49 6.74 7.49 1.84 0 2.9-.44 4.12-1.46v1.2h4.9V.24h-5.03v10.83zM15.88 17l-3.53-6.94h-.93L7.89 17l-2.1-6.94H.16l6.22 14.92h.93l4.59-7.88 4.6 7.88h.92l6.21-14.92h-5.65L15.88 17zM50.98 21.01c-.51.67-1.16 1.04-2.3 1.04-1.2 0-1.95-.67-1.95-1.74 0-1 1-1.71 2.13-1.71.95 0 1.5.23 2.12.77v1.64zM48.55 9.8c-1.44 0-3.46.33-4.83.73l.44 3.46c1.3-.31 2.5-.5 3.5-.5 2.05 0 3.32.8 3.32 2.88v.36c-1-.53-1.96-.87-3.56-.87-3.46 0-5.45 1.98-5.45 4.5 0 2.87 2.23 4.51 5.1 4.51 1.9 0 3.02-.53 4.05-1.5v1.23h4.9v-8.13c0-4.36-2.4-6.67-7.47-6.67zM80.32 16.43V14.9h-3.24v9.49h3.33v-6c.54-.71 1.79-.76 3.37-.43v-3.24c-1.74 0-2.57.55-3.46 1.71zM72.73 21.22a1.67 1.67 0 100 3.33c.94 0 1.7-.73 1.7-1.66 0-.93-.76-1.67-1.7-1.67zM65.11 18.17l-3.05-8.12h-5.63l6.28 13.01-4.63 8.79h5.07l10.54-21.8h-5.53l-3.05 8.12zM91.54 20.74c-.74.78-1.46 1.07-2.13 1.07-.65 0-1.1-.29-1.1-1.2v-5.77H85v6.53c0 1.84 1.07 3.13 3.08 3.13 1.23 0 2.46-.7 3.55-1.77v1.6h3.25v-9.5h-3.34v5.91z" /></symbol><symbol fill="none" viewBox="0 0 24 32" id="wday_small"><path fill="#F42F3A" d="M15.88 17l-3.53-6.94h-.93L7.89 17l-2.1-6.94H.16l6.22 14.92h.93l4.59-7.88 4.6 7.88h.92l6.21-14.92h-5.65L15.88 17z" /></symbol><symbol fill="none" viewBox="0 0 146 32" id="woman"><path fill="#000" d="M42.22 1.28V0h-9.1v1.28h4.37l-6.6 22.88-6.37-22.88h3.92V0H16.93v1.28h3.59l-6.6 22.88L7.55 1.28h3.92V0H0v1.28h2.9L11.46 32h1.42l8.03-27.68.21-.96L28.43 32h1.44L38.8 1.28h3.42zM75 26.98v.22s.14-1.93 0-.22l.01-18.34h1.96v-.8h-5.52L65.61 24 60.07 7.84h-5.48v.8h1.93V27.2H54.7v.96h5.76v-.96h-2.72V9.6l6.5 19.2h.91L72 9.76l-.03 17.44h-2.12v.96h7.35v-.96h-2.21l.02-.22zM87.65 7.36h-1.14L80.17 27.2h-1.99v.96h5.94v-.96h-2.86l1.94-6.08h5.41l1.7 6.08h-2.25v.96h7.19v-.96H93.3L87.65 7.36zm18.8 1.28h2.96v13.44l-8.62-14.24h-5.03v.8h1.78V27.2h-1.78v.96h5.69v-.96h-3V10.4l10.95 18.24v-.16.16h.91v-20h1.95v-.8h-5.8v.8zM45.5 7.68h-.03c-4.67 0-7.4 2.88-7.42 8.16v4.48c.03 5.28 2.76 8.16 7.42 8.16h.03c4.66 0 7.39-2.88 7.42-8.16v-4.48c-.02-5.28-2.75-8.16-7.42-8.16zm83.24 3.84c-.03 0-.05 0-.09-.16h-.01c-.1 0-.21-.16-.33-.16-.37-.22-.8-.33-1.23-.32-1.49 0-2.19.64-2.84 1.6-.43.64-.88 1.6-1.14 2.08-.02-.32-.09-.8-.41-1.76-.43-1.12-.84-1.44-.9-1.6h-3.53v.96h2.23V25.6h-2.23v.8h8.01v-.8h-3.16v-9.28c.34-.96.87-1.92 1.65-3.2.8-.96 1.22-1.28 1.68-1.28.2 0 .2.96.2 1.44l-.02.16c0 2.08.6 2.56 1.33 2.56.73 0 1.32-.48 1.32-2.56 0-.64-.2-1.44-.5-1.92h-.03zm-79.46 11.2c0 4.32-1.25 4.96-3.8 4.96h-.01c-2.54 0-3.8-.64-3.83-4.96V13.6c.02-4.32 1.3-4.96 3.83-4.96 2.56 0 3.8.64 3.8 4.96v9.12zm34.18-2.4l2.52-7.84h.2l2.22 7.84h-4.94zm31.03 2.24c-1.09 0-1.97.96-1.97 2.08 0 1.28.88 2.24 1.97 2.24 1.1 0 1.98-.96 1.98-2.24 0-1.12-.88-2.08-1.98-2.08zM146 25.6v.8h-3.67c-.72 0-1.2-.96-1.17-2.4-.28.48-1.79 2.88-4.47 2.88-4 0-3.9-3.68-3.9-3.68V12.16h-2.3v-.96h4.93v13.44c0 .64.39 1.28 1.62 1.28 2.38 0 4.09-3.2 4.12-3.2V11.2h2.63v13.92s.06.48.45.48H146z" /></symbol><symbol fill="none" viewBox="0 0 43 32" id="woman_small"><path fill="#000" d="M42.22 1.28V0h-9.1v1.28h4.37l-6.6 22.88-6.37-22.88h3.92V0H16.93v1.28h3.59l-6.6 22.88L7.55 1.28h3.92V0H0v1.28h2.9L11.46 32h1.42l8.03-27.68.21-.96L28.43 32h1.44L38.8 1.28h3.42z" /></symbol></defs></svg>